<svg width="26" height="26" viewBox="0 0 26 26" fill="none" xmlns="http://www.w3.org/2000/svg">
<rect width="26" height="25" transform="translate(0 1)" fill="white"/>
<path d="M7.47656 12.7188L7.47656 6.9569C7.47656 3.9067 9.94924 1.43403 12.9994 1.43403V1.43403C16.0496 1.43403 18.5223 3.90671 18.5223 6.95691L18.5223 12.7188" stroke="black" stroke-linecap="round"/>
<path d="M1.65519 12.1621C1.79744 10.4181 1.86857 9.54615 2.44293 9.01673C3.0173 8.4873 3.89218 8.4873 5.64195 8.4873H20.3594C22.1092 8.4873 22.9841 8.4873 23.5584 9.01673C24.1328 9.54615 24.2039 10.4181 24.3462 12.1621L25.2508 23.2518C25.3333 24.2639 25.3746 24.7699 25.0776 25.0921C24.7805 25.4144 24.2728 25.4144 23.2574 25.4144H2.74399C1.72857 25.4144 1.22085 25.4144 0.92382 25.0921C0.626789 24.7699 0.668066 24.2639 0.750619 23.2518L1.65519 12.1621Z" stroke="black"/>
</svg>
