<svg width="396" height="52" viewBox="0 0 396 52" fill="none" xmlns="http://www.w3.org/2000/svg">
<path d="M156.672 42.4346C156.672 43.1038 156.529 43.7041 156.242 44.2355C155.956 44.7604 155.553 45.1967 155.033 45.5444C154.513 45.8855 153.906 46.1217 153.213 46.2529C153.073 46.2726 152.933 46.2923 152.793 46.312C152.653 46.3251 152.51 46.3382 152.363 46.3513C152.217 46.3579 152.07 46.3612 151.924 46.3612C151.497 46.3612 151.074 46.3317 150.654 46.2726C150.234 46.2136 149.841 46.1283 149.474 46.0167C149.114 45.9052 148.814 45.7642 148.574 45.5936L148.694 45.2196C148.908 45.364 149.188 45.4919 149.534 45.6034C149.881 45.7084 150.257 45.7904 150.664 45.8494C151.07 45.9085 151.467 45.938 151.854 45.938C153.08 45.938 154.04 45.6231 154.733 44.9933C155.433 44.3634 155.783 43.4942 155.783 42.3854C155.783 41.5784 155.579 40.8666 155.173 40.2499C154.773 39.6266 154.193 39.1379 153.433 38.7836C152.673 38.4227 151.757 38.2423 150.684 38.2423H149.074V50.7503C149.074 50.8684 149.118 50.9668 149.204 51.0455C149.291 51.1242 149.407 51.1702 149.554 51.1833L150.834 51.3014C150.94 51.3079 151.014 51.3276 151.054 51.3604C151.094 51.3867 151.114 51.426 151.114 51.4785C151.114 51.5769 151.034 51.6261 150.874 51.6261H146.915C146.835 51.6261 146.775 51.613 146.735 51.5868C146.695 51.554 146.675 51.5179 146.675 51.4785C146.675 51.3801 146.768 51.3211 146.955 51.3014L147.815 51.1833C147.961 51.1636 148.078 51.1177 148.164 51.0455C148.251 50.9668 148.294 50.8684 148.294 50.7503V38.7245C148.294 38.6064 148.251 38.5113 148.164 38.4391C148.078 38.3604 147.961 38.3112 147.815 38.2915L146.955 38.1734C146.768 38.1538 146.675 38.0947 146.675 37.9963C146.675 37.9504 146.695 37.9143 146.735 37.888C146.775 37.8618 146.835 37.8487 146.915 37.8487H150.684C151.964 37.8487 153.047 38.0488 153.933 38.449C154.819 38.8492 155.496 39.397 155.963 40.0924C156.436 40.7813 156.672 41.562 156.672 42.4346ZM152.573 46.1545L153.433 46.0364L156.552 50.583C156.686 50.7667 156.842 50.9143 157.022 51.0258C157.202 51.1374 157.452 51.2161 157.772 51.262C158.039 51.2948 158.205 51.3276 158.272 51.3604C158.345 51.3867 158.382 51.426 158.382 51.4785C158.382 51.5179 158.355 51.554 158.302 51.5868C158.255 51.613 158.189 51.6261 158.102 51.6261H154.923C154.743 51.6261 154.653 51.5769 154.653 51.4785C154.653 51.426 154.68 51.3867 154.733 51.3604C154.786 51.3276 154.859 51.3112 154.953 51.3112L155.513 51.2522C155.679 51.2325 155.773 51.1734 155.793 51.075C155.819 50.9701 155.776 50.8356 155.663 50.6715L152.573 46.1545Z" fill="black"/>
<path d="M165.476 44.6292H169.505C169.911 44.6292 170.191 44.5537 170.344 44.4028C170.498 44.2519 170.578 43.9534 170.584 43.5073C170.584 43.4351 170.594 43.3761 170.614 43.3301C170.641 43.2777 170.684 43.2448 170.744 43.2317C170.864 43.1924 170.948 43.258 170.994 43.4285L171.724 46.0561C171.744 46.1283 171.744 46.1873 171.724 46.2332C171.704 46.2726 171.661 46.2988 171.594 46.312C171.541 46.3185 171.491 46.3087 171.444 46.2824C171.397 46.2496 171.357 46.2037 171.324 46.1447C171.184 45.8298 171.054 45.5936 170.934 45.4361C170.814 45.2787 170.678 45.1737 170.524 45.1212C170.371 45.0622 170.184 45.0326 169.964 45.0326H165.476V44.6292ZM163.386 37.9963C163.386 37.9504 163.403 37.9143 163.436 37.888C163.476 37.8618 163.539 37.8487 163.626 37.8487H171.234C171.381 37.8487 171.501 37.8093 171.594 37.7306C171.687 37.6519 171.774 37.5764 171.854 37.5042C171.941 37.4321 172.031 37.396 172.124 37.396C172.191 37.396 172.241 37.4124 172.274 37.4452C172.314 37.4714 172.344 37.5272 172.364 37.6125L173.084 40.3483C173.104 40.4074 173.1 40.4598 173.074 40.5058C173.054 40.5451 173.01 40.5714 172.944 40.5845C172.884 40.5911 172.824 40.5812 172.764 40.555C172.71 40.5287 172.667 40.473 172.634 40.3877C172.44 39.9087 172.267 39.5249 172.114 39.2363C171.961 38.9476 171.801 38.7344 171.634 38.5966C171.474 38.4523 171.287 38.3571 171.074 38.3112C170.868 38.2653 170.611 38.2423 170.304 38.2423H165.785V50.5928C165.785 50.8093 165.869 50.9701 166.035 51.075C166.202 51.18 166.472 51.2325 166.845 51.2325H170.574C170.961 51.2325 171.277 51.1702 171.524 51.0455C171.777 50.9143 172.017 50.6486 172.244 50.2484C172.47 49.8416 172.74 49.2282 173.054 48.4081C173.08 48.3425 173.11 48.2966 173.144 48.2703C173.177 48.2441 173.217 48.231 173.264 48.231C173.337 48.231 173.384 48.2539 173.404 48.2999C173.43 48.3458 173.434 48.4114 173.414 48.4967L172.684 51.7541C172.664 51.8393 172.627 51.9017 172.574 51.941C172.527 51.9804 172.47 52.0001 172.404 52.0001C172.317 52.0001 172.231 51.9673 172.144 51.9017C172.057 51.8426 171.964 51.7803 171.864 51.7147C171.771 51.6556 171.657 51.6261 171.524 51.6261H163.626C163.539 51.6261 163.476 51.613 163.436 51.5868C163.403 51.554 163.386 51.5179 163.386 51.4785C163.386 51.3801 163.479 51.3211 163.666 51.3014L164.526 51.1833C164.672 51.1636 164.786 51.1177 164.866 51.0455C164.952 50.9668 164.996 50.8684 164.996 50.7503V38.7245C164.996 38.6064 164.952 38.5113 164.866 38.4391C164.786 38.3604 164.672 38.3112 164.526 38.2915L163.666 38.1734C163.479 38.1538 163.386 38.0947 163.386 37.9963Z" fill="black"/>
<path d="M184.636 51.941C183.963 51.941 183.387 51.8525 182.907 51.6753C182.434 51.4982 182.054 51.3243 181.767 51.1538C181.487 50.9766 181.304 50.888 181.217 50.888C181.137 50.888 181.087 50.9405 181.067 51.0455C181.047 51.1439 181.031 51.262 181.017 51.3998C181.011 51.5376 180.994 51.6556 180.967 51.7541C180.941 51.859 180.881 51.9115 180.787 51.9115C180.741 51.9115 180.704 51.8951 180.677 51.8623C180.651 51.8295 180.627 51.777 180.607 51.7049L179.748 48.7624C179.728 48.6902 179.728 48.6279 179.748 48.5754C179.774 48.5164 179.821 48.4803 179.888 48.4672C179.948 48.4475 180.001 48.4508 180.048 48.477C180.101 48.5032 180.141 48.5524 180.168 48.6246C180.474 49.2872 180.864 49.8351 181.337 50.2681C181.817 50.6945 182.344 51.0127 182.917 51.2226C183.49 51.4326 184.07 51.5376 184.656 51.5376C185.53 51.5376 186.206 51.2915 186.686 50.7995C187.166 50.3074 187.409 49.6809 187.416 48.9198C187.422 48.4606 187.322 48.0276 187.116 47.6208C186.909 47.2075 186.529 46.8073 185.976 46.4202C185.43 46.0331 184.643 45.6526 183.617 45.2787C182.65 44.9178 181.874 44.5307 181.287 44.1174C180.707 43.6975 180.284 43.2383 180.018 42.7397C179.751 42.2345 179.618 41.6801 179.618 41.0765C179.618 40.3614 179.781 39.7447 180.108 39.2264C180.441 38.7016 180.897 38.2981 181.477 38.016C182.057 37.7273 182.717 37.583 183.457 37.583C184.143 37.583 184.69 37.6683 185.096 37.8388C185.51 38.0029 185.826 38.1702 186.046 38.3407C186.273 38.5048 186.446 38.5868 186.566 38.5868C186.693 38.5868 186.756 38.508 186.756 38.3506C186.756 38.1866 186.756 38.0225 186.756 37.8585C186.763 37.6879 186.829 37.6027 186.956 37.6027C187.003 37.6027 187.039 37.6191 187.066 37.6519C187.093 37.6847 187.119 37.7372 187.146 37.8093L188.166 40.988C188.192 41.0536 188.192 41.1192 188.166 41.1848C188.139 41.2438 188.096 41.2799 188.036 41.293C187.976 41.3127 187.919 41.3127 187.866 41.293C187.819 41.2668 187.776 41.2143 187.736 41.1356C187.369 40.3614 186.963 39.7447 186.516 39.2855C186.069 38.8262 185.586 38.4949 185.066 38.2915C184.546 38.0881 183.99 37.9865 183.397 37.9865C182.477 37.9865 181.734 38.2489 181.167 38.7737C180.601 39.2986 180.318 39.9973 180.318 40.8699C180.318 41.3619 180.427 41.8277 180.647 42.2673C180.867 42.7003 181.244 43.1136 181.777 43.5073C182.317 43.9009 183.064 44.2782 184.017 44.639C185.063 45.0326 185.883 45.4361 186.476 45.8494C187.076 46.2628 187.499 46.7056 187.746 47.178C187.999 47.6503 188.122 48.1752 188.116 48.7525C188.109 49.3299 187.972 49.8613 187.706 50.3468C187.446 50.8323 187.059 51.2194 186.546 51.508C186.039 51.7967 185.403 51.941 184.636 51.941Z" fill="black"/>
<path d="M195.666 37.8487H203.074C203.241 37.8487 203.361 37.8093 203.434 37.7306C203.514 37.6519 203.581 37.5764 203.634 37.5042C203.694 37.4321 203.777 37.396 203.884 37.396C203.951 37.396 204.007 37.4124 204.054 37.4452C204.107 37.478 204.144 37.5371 204.164 37.6223L204.874 40.5943C204.894 40.6796 204.89 40.7485 204.864 40.801C204.844 40.8535 204.804 40.8863 204.744 40.8994C204.677 40.9125 204.617 40.9027 204.564 40.8699C204.517 40.8305 204.477 40.7715 204.444 40.6927C204.177 39.9514 203.944 39.4101 203.744 39.069C203.551 38.7213 203.327 38.4949 203.074 38.3899C202.828 38.285 202.491 38.2325 202.064 38.2325H199.765V50.7503C199.765 50.8684 199.808 50.9668 199.895 51.0455C199.982 51.1177 200.098 51.1636 200.245 51.1833L201.105 51.3014C201.291 51.3211 201.385 51.3801 201.385 51.4785C201.385 51.5769 201.305 51.6261 201.145 51.6261H197.605C197.526 51.6261 197.466 51.613 197.426 51.5868C197.386 51.554 197.366 51.5179 197.366 51.4785C197.366 51.3801 197.459 51.3211 197.645 51.3014L198.505 51.1833C198.652 51.1636 198.769 51.1177 198.855 51.0455C198.942 50.9668 198.985 50.8684 198.985 50.7503V38.2325H196.686C196.259 38.2325 195.919 38.285 195.666 38.3899C195.419 38.4949 195.196 38.7213 194.996 39.069C194.803 39.4101 194.573 39.9514 194.306 40.6927C194.28 40.7715 194.24 40.8305 194.186 40.8699C194.133 40.9027 194.073 40.9125 194.006 40.8994C193.946 40.8863 193.903 40.8535 193.876 40.801C193.856 40.7485 193.856 40.6796 193.876 40.5943L194.586 37.6223C194.606 37.5371 194.64 37.478 194.686 37.4452C194.74 37.4124 194.8 37.396 194.866 37.396C194.979 37.396 195.063 37.4321 195.116 37.5042C195.169 37.5764 195.233 37.6519 195.306 37.7306C195.379 37.8093 195.499 37.8487 195.666 37.8487Z" fill="black"/>
<path d="M212.005 46.3907H218.044L218.134 46.804H211.865L212.005 46.3907ZM212.495 51.4785C212.495 51.5179 212.475 51.554 212.435 51.5868C212.395 51.613 212.325 51.6261 212.225 51.6261H209.236C209.143 51.6261 209.073 51.613 209.026 51.5868C208.986 51.5605 208.966 51.5277 208.966 51.4884C208.966 51.449 208.983 51.4162 209.016 51.3899C209.056 51.3637 209.139 51.3375 209.266 51.3112L209.776 51.1734C209.943 51.1275 210.063 51.0553 210.136 50.9569C210.216 50.8585 210.306 50.665 210.406 50.3763L214.545 38.5769C214.598 38.4391 214.598 38.344 214.545 38.2915C214.491 38.2325 214.348 38.1898 214.115 38.1636C213.942 38.1505 213.818 38.1308 213.745 38.1046C213.678 38.0717 213.645 38.0291 213.645 37.9766C213.645 37.9373 213.668 37.9077 213.715 37.888C213.762 37.8618 213.828 37.8487 213.915 37.8487H216.504C216.598 37.8487 216.664 37.8618 216.704 37.888C216.744 37.9077 216.764 37.934 216.764 37.9668C216.764 38.0193 216.734 38.0619 216.674 38.0947C216.614 38.1275 216.494 38.1505 216.314 38.1636C216.101 38.1833 215.974 38.2161 215.934 38.262C215.894 38.3079 215.894 38.3899 215.934 38.508L220.273 50.7601C220.327 50.9241 220.42 51.0488 220.553 51.1341C220.687 51.2128 220.89 51.2686 221.163 51.3014C221.303 51.3079 221.396 51.3276 221.443 51.3604C221.496 51.3867 221.523 51.426 221.523 51.4785C221.523 51.5179 221.496 51.554 221.443 51.5868C221.396 51.613 221.33 51.6261 221.243 51.6261H218.174C218.094 51.6261 218.027 51.613 217.974 51.5868C217.927 51.554 217.904 51.5179 217.904 51.4785C217.904 51.4326 217.927 51.3932 217.974 51.3604C218.021 51.3276 218.097 51.3112 218.204 51.3112L219.144 51.2325C219.317 51.2194 219.414 51.1669 219.434 51.075C219.46 50.9832 219.44 50.8388 219.374 50.642L214.965 38.2128L215.175 38.1833L210.926 50.3665C210.866 50.5436 210.836 50.6912 210.836 50.8093C210.836 50.9209 210.872 51.0094 210.946 51.075C211.026 51.1341 211.142 51.1734 211.296 51.1931L212.195 51.3112C212.315 51.3178 212.395 51.3342 212.435 51.3604C212.475 51.3867 212.495 51.426 212.495 51.4785Z" fill="black"/>
<path d="M237.129 46.0364L236.789 38.8229C236.782 38.672 236.722 38.554 236.609 38.4687C236.502 38.3834 236.322 38.3211 236.069 38.2817L235.299 38.1636C235.166 38.1439 235.083 38.1177 235.049 38.0849C235.016 38.0521 234.999 38.0193 234.999 37.9865C234.999 37.9471 235.023 37.9143 235.069 37.888C235.116 37.8618 235.179 37.8487 235.259 37.8487H238.729C238.815 37.8487 238.879 37.8618 238.919 37.888C238.965 37.9143 238.989 37.9471 238.989 37.9865C238.989 38.0258 238.969 38.0652 238.929 38.1046C238.895 38.1374 238.815 38.1603 238.689 38.1734L237.979 38.262C237.725 38.2882 237.549 38.3539 237.449 38.4588C237.349 38.5638 237.302 38.6885 237.309 38.8328L237.649 46.0856C237.662 46.4005 237.675 46.7122 237.689 47.0205C237.709 47.3223 237.729 47.6372 237.749 47.9653C237.789 48.746 237.632 49.4349 237.279 50.0319C236.926 50.6223 236.392 51.0849 235.679 51.4195C234.966 51.7541 234.093 51.9214 233.06 51.9214C231.914 51.9214 230.95 51.7606 230.171 51.4391C229.391 51.1111 228.808 50.6551 228.421 50.0712C228.035 49.4808 227.855 48.7952 227.881 48.0145C227.888 47.798 227.901 47.5224 227.921 47.1878C227.941 46.8532 227.961 46.5186 227.981 46.184C228.001 45.8494 228.015 45.5641 228.021 45.3279L228.331 38.8525C228.344 38.6753 228.288 38.5408 228.161 38.449C228.041 38.3571 227.868 38.2948 227.641 38.262L226.951 38.1636C226.745 38.1308 226.642 38.075 226.642 37.9963C226.642 37.9504 226.665 37.9143 226.712 37.888C226.765 37.8618 226.835 37.8487 226.921 37.8487H230.551C230.644 37.8487 230.711 37.8618 230.751 37.888C230.797 37.9143 230.82 37.9504 230.82 37.9963C230.82 38.0291 230.8 38.0619 230.761 38.0947C230.727 38.121 230.647 38.1439 230.521 38.1636L229.831 38.262C229.597 38.2948 229.428 38.3539 229.321 38.4391C229.214 38.5179 229.154 38.6491 229.141 38.8328L228.821 45.2295C228.794 45.7609 228.771 46.2365 228.751 46.6564C228.731 47.0763 228.714 47.4765 228.701 47.857C228.661 49.0183 229.028 49.9072 229.801 50.5239C230.581 51.1406 231.67 51.449 233.07 51.449C233.963 51.449 234.723 51.3112 235.349 51.0357C235.983 50.7601 236.459 50.3665 236.779 49.8547C237.106 49.3364 237.252 48.7197 237.219 48.0046C237.199 47.5716 237.182 47.2009 237.169 46.8926C237.156 46.5777 237.142 46.2923 237.129 46.0364Z" fill="black"/>
<path d="M255.297 42.4346C255.297 43.1038 255.153 43.7041 254.867 44.2355C254.58 44.7604 254.177 45.1967 253.657 45.5444C253.137 45.8855 252.531 46.1217 251.838 46.2529C251.698 46.2726 251.558 46.2923 251.418 46.312C251.278 46.3251 251.134 46.3382 250.988 46.3513C250.841 46.3579 250.694 46.3612 250.548 46.3612C250.121 46.3612 249.698 46.3317 249.278 46.2726C248.858 46.2136 248.465 46.1283 248.098 46.0167C247.739 45.9052 247.439 45.7642 247.199 45.5936L247.319 45.2196C247.532 45.364 247.812 45.4919 248.158 45.6034C248.505 45.7084 248.882 45.7904 249.288 45.8494C249.695 45.9085 250.091 45.938 250.478 45.938C251.704 45.938 252.664 45.6231 253.357 44.9933C254.057 44.3634 254.407 43.4942 254.407 42.3854C254.407 41.5784 254.204 40.8666 253.797 40.2499C253.397 39.6266 252.817 39.1379 252.057 38.7836C251.298 38.4227 250.381 38.2423 249.308 38.2423H247.699V50.7503C247.699 50.8684 247.742 50.9668 247.829 51.0455C247.915 51.1242 248.032 51.1702 248.178 51.1833L249.458 51.3014C249.565 51.3079 249.638 51.3276 249.678 51.3604C249.718 51.3867 249.738 51.426 249.738 51.4785C249.738 51.5769 249.658 51.6261 249.498 51.6261H245.539C245.459 51.6261 245.399 51.613 245.359 51.5868C245.319 51.554 245.299 51.5179 245.299 51.4785C245.299 51.3801 245.392 51.3211 245.579 51.3014L246.439 51.1833C246.585 51.1636 246.702 51.1177 246.789 51.0455C246.875 50.9668 246.919 50.8684 246.919 50.7503V38.7245C246.919 38.6064 246.875 38.5113 246.789 38.4391C246.702 38.3604 246.585 38.3112 246.439 38.2915L245.579 38.1734C245.392 38.1538 245.299 38.0947 245.299 37.9963C245.299 37.9504 245.319 37.9143 245.359 37.888C245.399 37.8618 245.459 37.8487 245.539 37.8487H249.308C250.588 37.8487 251.671 38.0488 252.557 38.449C253.444 38.8492 254.12 39.397 254.587 40.0924C255.06 40.7813 255.297 41.562 255.297 42.4346ZM251.198 46.1545L252.057 46.0364L255.177 50.583C255.31 50.7667 255.467 50.9143 255.647 51.0258C255.827 51.1374 256.077 51.2161 256.396 51.262C256.663 51.2948 256.83 51.3276 256.896 51.3604C256.97 51.3867 257.006 51.426 257.006 51.4785C257.006 51.5179 256.98 51.554 256.926 51.5868C256.88 51.613 256.813 51.6261 256.726 51.6261H253.547C253.367 51.6261 253.277 51.5769 253.277 51.4785C253.277 51.426 253.304 51.3867 253.357 51.3604C253.41 51.3276 253.484 51.3112 253.577 51.3112L254.137 51.2522C254.304 51.2325 254.397 51.1734 254.417 51.075C254.444 50.9701 254.4 50.8356 254.287 50.6715L251.198 46.1545Z" fill="black"/>
<path d="M264.207 46.3907H270.246L270.336 46.804H264.068L264.207 46.3907ZM264.697 51.4785C264.697 51.5179 264.677 51.554 264.637 51.5868C264.597 51.613 264.527 51.6261 264.427 51.6261H261.438C261.345 51.6261 261.275 51.613 261.228 51.5868C261.188 51.5605 261.168 51.5277 261.168 51.4884C261.168 51.449 261.185 51.4162 261.218 51.3899C261.258 51.3637 261.342 51.3375 261.468 51.3112L261.978 51.1734C262.145 51.1275 262.265 51.0553 262.338 50.9569C262.418 50.8585 262.508 50.665 262.608 50.3763L266.747 38.5769C266.8 38.4391 266.8 38.344 266.747 38.2915C266.694 38.2325 266.55 38.1898 266.317 38.1636C266.144 38.1505 266.02 38.1308 265.947 38.1046C265.88 38.0717 265.847 38.0291 265.847 37.9766C265.847 37.9373 265.87 37.9077 265.917 37.888C265.964 37.8618 266.03 37.8487 266.117 37.8487H268.706C268.8 37.8487 268.866 37.8618 268.906 37.888C268.946 37.9077 268.966 37.934 268.966 37.9668C268.966 38.0193 268.936 38.0619 268.876 38.0947C268.816 38.1275 268.696 38.1505 268.516 38.1636C268.303 38.1833 268.177 38.2161 268.137 38.262C268.097 38.3079 268.097 38.3899 268.137 38.508L272.475 50.7601C272.529 50.9241 272.622 51.0488 272.755 51.1341C272.889 51.2128 273.092 51.2686 273.365 51.3014C273.505 51.3079 273.599 51.3276 273.645 51.3604C273.699 51.3867 273.725 51.426 273.725 51.4785C273.725 51.5179 273.699 51.554 273.645 51.5868C273.599 51.613 273.532 51.6261 273.445 51.6261H270.376C270.296 51.6261 270.229 51.613 270.176 51.5868C270.129 51.554 270.106 51.5179 270.106 51.4785C270.106 51.4326 270.129 51.3932 270.176 51.3604C270.223 51.3276 270.299 51.3112 270.406 51.3112L271.346 51.2325C271.519 51.2194 271.616 51.1669 271.636 51.075C271.662 50.9832 271.642 50.8388 271.576 50.642L267.167 38.2128L267.377 38.1833L263.128 50.3665C263.068 50.5436 263.038 50.6912 263.038 50.8093C263.038 50.9209 263.074 51.0094 263.148 51.075C263.228 51.1341 263.344 51.1734 263.498 51.1931L264.397 51.3112C264.517 51.3178 264.597 51.3342 264.637 51.3604C264.677 51.3867 264.697 51.426 264.697 51.4785Z" fill="black"/>
<path d="M283.356 51.4785C283.356 51.5179 283.333 51.554 283.286 51.5868C283.239 51.613 283.169 51.6261 283.076 51.6261H279.457C279.364 51.6261 279.294 51.613 279.247 51.5868C279.2 51.554 279.177 51.5179 279.177 51.4785C279.177 51.4063 279.26 51.3506 279.427 51.3112L280.277 51.1242C280.577 51.0521 280.77 50.9799 280.857 50.9077C280.943 50.829 280.987 50.6945 280.987 50.5042V40.1613C280.987 40.0039 280.957 39.8628 280.897 39.7382C280.843 39.6069 280.703 39.4167 280.477 39.1674L279.537 38.1046C279.484 38.0455 279.447 38.0061 279.427 37.9865C279.414 37.9602 279.407 37.9373 279.407 37.9176C279.407 37.8913 279.42 37.8749 279.447 37.8684C279.474 37.8552 279.51 37.8487 279.557 37.8487H280.177C280.277 37.8487 280.363 37.8684 280.437 37.9077C280.517 37.9471 280.603 38.0225 280.697 38.1341L290.394 49.9827L290.114 50.2582V38.9706C290.114 38.7803 290.068 38.6458 289.974 38.5671C289.888 38.4884 289.694 38.4162 289.394 38.3506L288.505 38.1636C288.338 38.1242 288.255 38.0685 288.255 37.9963C288.255 37.9504 288.278 37.9143 288.325 37.888C288.371 37.8618 288.438 37.8487 288.525 37.8487H292.154C292.24 37.8487 292.307 37.8618 292.354 37.888C292.4 37.9143 292.424 37.9504 292.424 37.9963C292.424 38.0685 292.34 38.1242 292.174 38.1636L291.324 38.3506C291.024 38.4162 290.831 38.4884 290.744 38.5671C290.657 38.6458 290.614 38.7803 290.614 38.9706V49.9827C290.614 50.1204 290.631 50.2254 290.664 50.2976C290.697 50.3698 290.747 50.4485 290.814 50.5338L291.424 51.2718C291.477 51.3375 291.514 51.3899 291.534 51.4293C291.561 51.4687 291.574 51.5015 291.574 51.5277C291.574 51.554 291.561 51.5769 291.534 51.5966C291.507 51.6163 291.451 51.6261 291.364 51.6261H290.594C290.454 51.6261 290.384 51.5671 290.384 51.449C290.384 51.3637 290.368 51.2915 290.334 51.2325C290.308 51.1669 290.221 51.0455 290.074 50.8684L281.226 40.0137L281.496 39.689V50.5042C281.496 50.6945 281.54 50.829 281.626 50.9077C281.713 50.9799 281.906 51.0521 282.206 51.1242L283.106 51.3112C283.273 51.3506 283.356 51.4063 283.356 51.4785Z" fill="black"/>
<path d="M300.129 37.8487H307.537C307.704 37.8487 307.824 37.8093 307.897 37.7306C307.977 37.6519 308.043 37.5764 308.097 37.5042C308.157 37.4321 308.24 37.396 308.347 37.396C308.413 37.396 308.47 37.4124 308.517 37.4452C308.57 37.478 308.607 37.5371 308.627 37.6223L309.336 40.5943C309.356 40.6796 309.353 40.7485 309.326 40.801C309.306 40.8535 309.266 40.8863 309.207 40.8994C309.14 40.9125 309.08 40.9027 309.027 40.8699C308.98 40.8305 308.94 40.7715 308.907 40.6927C308.64 39.9514 308.407 39.4101 308.207 39.069C308.013 38.7213 307.79 38.4949 307.537 38.3899C307.29 38.285 306.954 38.2325 306.527 38.2325H304.228V50.7503C304.228 50.8684 304.271 50.9668 304.358 51.0455C304.444 51.1177 304.561 51.1636 304.708 51.1833L305.567 51.3014C305.754 51.3211 305.847 51.3801 305.847 51.4785C305.847 51.5769 305.767 51.6261 305.607 51.6261H302.068C301.988 51.6261 301.928 51.613 301.888 51.5868C301.848 51.554 301.828 51.5179 301.828 51.4785C301.828 51.3801 301.922 51.3211 302.108 51.3014L302.968 51.1833C303.115 51.1636 303.231 51.1177 303.318 51.0455C303.405 50.9668 303.448 50.8684 303.448 50.7503V38.2325H301.148C300.722 38.2325 300.382 38.285 300.129 38.3899C299.882 38.4949 299.659 38.7213 299.459 39.069C299.266 39.4101 299.036 39.9514 298.769 40.6927C298.742 40.7715 298.702 40.8305 298.649 40.8699C298.596 40.9027 298.536 40.9125 298.469 40.8994C298.409 40.8863 298.366 40.8535 298.339 40.801C298.319 40.7485 298.319 40.6796 298.339 40.5943L299.049 37.6223C299.069 37.5371 299.102 37.478 299.149 37.4452C299.202 37.4124 299.262 37.396 299.329 37.396C299.442 37.396 299.526 37.4321 299.579 37.5042C299.632 37.5764 299.695 37.6519 299.769 37.7306C299.842 37.8093 299.962 37.8487 300.129 37.8487Z" fill="black"/>
<path d="M328.708 37.9865C327.921 37.9865 327.292 38.2554 326.818 38.7934C326.352 39.3248 326.118 40.0104 326.118 40.8502C326.118 41.5981 326.295 42.2345 326.648 42.7594C327.008 43.2777 327.561 43.6549 328.308 43.8911C328.595 43.9829 328.841 44.0945 329.048 44.2257C329.254 44.3503 329.451 44.5111 329.638 44.7079C329.831 44.8981 330.041 45.1376 330.267 45.4263L334.167 50.3566C334.373 50.6191 334.57 50.8093 334.756 50.9274C334.95 51.0389 335.22 51.1078 335.566 51.1341C335.713 51.1341 335.819 51.1538 335.886 51.1931C335.953 51.2325 335.986 51.285 335.986 51.3506C335.986 51.4096 335.953 51.4588 335.886 51.4982C335.819 51.531 335.719 51.5474 335.586 51.5474H334.786C334.56 51.5474 334.37 51.5179 334.216 51.4588C334.07 51.3998 333.93 51.285 333.797 51.1144L329.788 45.9577C329.448 45.5247 329.148 45.2032 328.888 44.9933C328.635 44.7833 328.321 44.6226 327.948 44.5111C327.068 44.2486 326.415 43.8189 325.988 43.2219C325.562 42.6249 325.349 41.9065 325.349 41.0667C325.349 40.4106 325.499 39.8267 325.799 39.315C326.105 38.7967 326.515 38.3899 327.028 38.0947C327.548 37.7929 328.131 37.642 328.778 37.642C329.444 37.642 330.018 37.7765 330.497 38.0455C330.984 38.3079 331.357 38.6688 331.617 39.128C331.884 39.5807 332.017 40.0859 332.017 40.6435C332.017 41.3521 331.88 41.9754 331.607 42.5133C331.341 43.0447 330.954 43.4778 330.447 43.8123C329.941 44.1469 329.338 44.3634 328.638 44.4619L328.468 44.1666C329.401 44.0223 330.094 43.6647 330.547 43.094C331.007 42.5232 331.237 41.7818 331.237 40.8699C331.237 39.9514 331.001 39.2428 330.527 38.7442C330.061 38.239 329.454 37.9865 328.708 37.9865ZM328.158 44.5012C327.445 44.5996 326.838 44.8063 326.338 45.1212C325.845 45.4296 325.469 45.8166 325.209 46.2824C324.949 46.7417 324.819 47.2436 324.819 47.7881C324.819 48.536 324.959 49.1757 325.239 49.7071C325.525 50.232 325.932 50.6322 326.458 50.9077C326.992 51.1833 327.618 51.3211 328.338 51.3211C329.204 51.3211 329.994 51.1111 330.707 50.6912C331.427 50.2648 332.01 49.6317 332.457 48.7919L332.757 49.0379C332.27 49.8974 331.644 50.5797 330.877 51.0849C330.117 51.5835 329.151 51.8328 327.978 51.8328C327.118 51.8328 326.392 51.6589 325.799 51.3112C325.212 50.9635 324.765 50.501 324.459 49.9236C324.159 49.3463 324.009 48.7132 324.009 48.0243C324.009 47.3486 324.172 46.7384 324.499 46.1939C324.825 45.6493 325.299 45.2032 325.919 44.8555C326.538 44.5078 327.285 44.2946 328.158 44.2158V44.5012ZM332.577 48.5951L333.997 45.6625C334.083 45.4919 334.133 45.3541 334.147 45.2491C334.16 45.1376 334.133 45.0523 334.067 44.9933C334 44.9277 333.89 44.8817 333.737 44.8555L332.877 44.6784C332.757 44.6521 332.674 44.6259 332.627 44.5996C332.58 44.5734 332.557 44.534 332.557 44.4815C332.557 44.4291 332.577 44.3864 332.617 44.3536C332.664 44.3208 332.737 44.3044 332.837 44.3044H335.976C336.163 44.3044 336.256 44.3634 336.256 44.4815C336.256 44.5275 336.233 44.5668 336.186 44.5996C336.139 44.6259 336.056 44.6521 335.936 44.6784C335.529 44.7571 335.23 44.8686 335.036 45.013C334.85 45.1507 334.683 45.3607 334.536 45.6428L332.827 48.9002L332.577 48.5951Z" fill="black"/>
<path d="M361.189 48.2802C361.189 49.2512 360.766 50.0516 359.919 50.6814C359.073 51.3112 357.863 51.6261 356.29 51.6261H351.101C351.021 51.6261 350.961 51.613 350.921 51.5868C350.881 51.554 350.861 51.5179 350.861 51.4785C350.861 51.3801 350.955 51.3211 351.141 51.3014L352.001 51.1833C352.148 51.1636 352.261 51.1177 352.341 51.0455C352.428 50.9668 352.471 50.8684 352.471 50.7503V38.7245C352.471 38.6064 352.428 38.5113 352.341 38.4391C352.261 38.3604 352.148 38.3112 352.001 38.2915L351.141 38.1734C350.955 38.1538 350.861 38.0947 350.861 37.9963C350.861 37.9504 350.881 37.9143 350.921 37.888C350.961 37.8618 351.021 37.8487 351.101 37.8487H355.13C356.27 37.8487 357.23 38.0127 358.01 38.3407C358.796 38.6622 359.389 39.1083 359.789 39.6791C360.189 40.2499 360.389 40.9125 360.389 41.667C360.389 42.3165 360.219 42.907 359.879 43.4384C359.546 43.9698 359.033 44.3962 358.34 44.7177C357.646 45.0392 356.763 45.1999 355.69 45.1999L356.37 45.013C357.377 45.013 358.24 45.1573 358.96 45.446C359.679 45.7281 360.229 46.1151 360.609 46.6072C360.996 47.0993 361.189 47.6569 361.189 48.2802ZM355.82 45.2787H352.971V44.9047H355.91C356.657 44.9047 357.297 44.7669 357.83 44.4914C358.37 44.2158 358.783 43.8353 359.069 43.3498C359.363 42.8578 359.509 42.2935 359.509 41.6572C359.509 40.988 359.346 40.3975 359.019 39.8858C358.693 39.3675 358.203 38.9607 357.55 38.6655C356.903 38.3703 356.097 38.2226 355.13 38.2226H353.271V50.5928C353.271 50.8093 353.354 50.9733 353.521 51.0849C353.694 51.1964 353.964 51.2522 354.331 51.2522H356.22C357.133 51.2522 357.886 51.1242 358.48 50.8684C359.079 50.6059 359.526 50.2517 359.819 49.8055C360.119 49.3528 360.269 48.8477 360.269 48.29C360.269 47.4109 359.899 46.6892 359.159 46.125C358.426 45.5608 357.313 45.2787 355.82 45.2787Z" fill="black"/>
<path d="M369.213 46.3907H375.252L375.342 46.804H369.073L369.213 46.3907ZM369.703 51.4785C369.703 51.5179 369.683 51.554 369.643 51.5868C369.603 51.613 369.533 51.6261 369.433 51.6261H366.444C366.35 51.6261 366.28 51.613 366.234 51.5868C366.194 51.5605 366.174 51.5277 366.174 51.4884C366.174 51.449 366.191 51.4162 366.224 51.3899C366.264 51.3637 366.347 51.3375 366.474 51.3112L366.984 51.1734C367.15 51.1275 367.27 51.0553 367.344 50.9569C367.424 50.8585 367.514 50.665 367.613 50.3763L371.752 38.5769C371.806 38.4391 371.806 38.344 371.752 38.2915C371.699 38.2325 371.556 38.1898 371.323 38.1636C371.149 38.1505 371.026 38.1308 370.953 38.1046C370.886 38.0717 370.853 38.0291 370.853 37.9766C370.853 37.9373 370.876 37.9077 370.923 37.888C370.969 37.8618 371.036 37.8487 371.123 37.8487H373.712C373.805 37.8487 373.872 37.8618 373.912 37.888C373.952 37.9077 373.972 37.934 373.972 37.9668C373.972 38.0193 373.942 38.0619 373.882 38.0947C373.822 38.1275 373.702 38.1505 373.522 38.1636C373.309 38.1833 373.182 38.2161 373.142 38.262C373.102 38.3079 373.102 38.3899 373.142 38.508L377.481 50.7601C377.534 50.9241 377.628 51.0488 377.761 51.1341C377.894 51.2128 378.098 51.2686 378.371 51.3014C378.511 51.3079 378.604 51.3276 378.651 51.3604C378.704 51.3867 378.731 51.426 378.731 51.4785C378.731 51.5179 378.704 51.554 378.651 51.5868C378.604 51.613 378.537 51.6261 378.451 51.6261H375.382C375.302 51.6261 375.235 51.613 375.182 51.5868C375.135 51.554 375.112 51.5179 375.112 51.4785C375.112 51.4326 375.135 51.3932 375.182 51.3604C375.228 51.3276 375.305 51.3112 375.412 51.3112L376.351 51.2325C376.525 51.2194 376.621 51.1669 376.641 51.075C376.668 50.9832 376.648 50.8388 376.581 50.642L372.172 38.2128L372.382 38.1833L368.133 50.3665C368.073 50.5436 368.043 50.6912 368.043 50.8093C368.043 50.9209 368.08 51.0094 368.153 51.075C368.233 51.1341 368.35 51.1734 368.503 51.1931L369.403 51.3112C369.523 51.3178 369.603 51.3342 369.643 51.3604C369.683 51.3867 369.703 51.426 369.703 51.4785Z" fill="black"/>
<path d="M394.29 42.4346C394.29 43.1038 394.147 43.7041 393.86 44.2355C393.574 44.7604 393.17 45.1967 392.65 45.5444C392.131 45.8855 391.524 46.1217 390.831 46.2529C390.691 46.2726 390.551 46.2923 390.411 46.312C390.271 46.3251 390.128 46.3382 389.981 46.3513C389.835 46.3579 389.688 46.3612 389.541 46.3612C389.115 46.3612 388.691 46.3317 388.272 46.2726C387.852 46.2136 387.458 46.1283 387.092 46.0167C386.732 45.9052 386.432 45.7642 386.192 45.5936L386.312 45.2196C386.525 45.364 386.805 45.4919 387.152 45.6034C387.498 45.7084 387.875 45.7904 388.282 45.8494C388.688 45.9085 389.085 45.938 389.471 45.938C390.698 45.938 391.657 45.6231 392.351 44.9933C393.05 44.3634 393.4 43.4942 393.4 42.3854C393.4 41.5784 393.197 40.8666 392.79 40.2499C392.391 39.6266 391.811 39.1379 391.051 38.7836C390.291 38.4227 389.375 38.2423 388.302 38.2423H386.692V50.7503C386.692 50.8684 386.735 50.9668 386.822 51.0455C386.909 51.1242 387.025 51.1702 387.172 51.1833L388.452 51.3014C388.558 51.3079 388.631 51.3276 388.671 51.3604C388.711 51.3867 388.731 51.426 388.731 51.4785C388.731 51.5769 388.651 51.6261 388.492 51.6261H384.532C384.452 51.6261 384.393 51.613 384.353 51.5868C384.313 51.554 384.293 51.5179 384.293 51.4785C384.293 51.3801 384.386 51.3211 384.572 51.3014L385.432 51.1833C385.579 51.1636 385.696 51.1177 385.782 51.0455C385.869 50.9668 385.912 50.8684 385.912 50.7503V38.7245C385.912 38.6064 385.869 38.5113 385.782 38.4391C385.696 38.3604 385.579 38.3112 385.432 38.2915L384.572 38.1734C384.386 38.1538 384.293 38.0947 384.293 37.9963C384.293 37.9504 384.313 37.9143 384.353 37.888C384.393 37.8618 384.452 37.8487 384.532 37.8487H388.302C389.581 37.8487 390.664 38.0488 391.551 38.449C392.437 38.8492 393.114 39.397 393.58 40.0924C394.053 40.7813 394.29 41.562 394.29 42.4346ZM390.191 46.1545L391.051 46.0364L394.17 50.583C394.303 50.7667 394.46 50.9143 394.64 51.0258C394.82 51.1374 395.07 51.2161 395.39 51.262C395.656 51.2948 395.823 51.3276 395.89 51.3604C395.963 51.3867 396 51.426 396 51.4785C396 51.5179 395.973 51.554 395.92 51.5868C395.873 51.613 395.806 51.6261 395.72 51.6261H392.541C392.361 51.6261 392.271 51.5769 392.271 51.4785C392.271 51.426 392.297 51.3867 392.351 51.3604C392.404 51.3276 392.477 51.3112 392.571 51.3112L393.13 51.2522C393.297 51.2325 393.39 51.1734 393.41 51.075C393.437 50.9701 393.394 50.8356 393.28 50.6715L390.191 46.1545Z" fill="black"/>
<path d="M0.459888 45.2667L0.459888 37.9745C0.459888 37.8104 0.419897 37.6923 0.339917 37.6202C0.259937 37.5415 0.183289 37.4758 0.109974 37.4234C0.0366581 37.3643 0 37.2823 0 37.1773C0 37.1117 0.0166628 37.056 0.049988 37.01C0.0833131 36.9576 0.143298 36.9215 0.229944 36.9018L3.24921 36.2031C3.33585 36.1834 3.40584 36.1867 3.45916 36.2129C3.51248 36.2326 3.5458 36.272 3.55913 36.331C3.57246 36.3966 3.56246 36.4557 3.52914 36.5081C3.48915 36.5541 3.42916 36.5934 3.34918 36.6262C2.59603 36.8887 2.04617 37.1183 1.69959 37.3151C1.34634 37.5054 1.11639 37.7252 1.00975 37.9745C0.903113 38.2172 0.849793 38.5485 0.849793 38.9684L0.849793 41.2318H13.5667C13.6867 41.2318 13.7866 41.1892 13.8666 41.1039C13.9399 41.0186 13.9866 40.9038 14.0066 40.7595L14.1265 39.9131C14.1465 39.7294 14.2065 39.6376 14.3065 39.6376C14.4065 39.6376 14.4565 39.7163 14.4565 39.8738V43.3575C14.4565 43.4362 14.4431 43.4953 14.4165 43.5346C14.3832 43.574 14.3465 43.5937 14.3065 43.5937C14.2065 43.5937 14.1465 43.5018 14.1265 43.3181L14.0066 42.4718C13.9866 42.3275 13.9399 42.2127 13.8666 42.1274C13.7866 42.0421 13.6867 41.9994 13.5667 41.9994H0.849793L0.849793 44.2629C0.849793 44.6828 0.903113 45.0174 1.00975 45.2667C1.11639 45.5094 1.34634 45.7292 1.69959 45.926C2.04617 46.1163 2.59603 46.3426 3.34918 46.605C3.42916 46.6313 3.48915 46.6706 3.52914 46.7231C3.56246 46.7756 3.57246 46.8347 3.55913 46.9003C3.5458 46.9593 3.51248 47.002 3.45916 47.0282C3.40584 47.0479 3.33585 47.0479 3.24921 47.0282L0.229944 46.3295C0.143298 46.3098 0.0833131 46.277 0.049988 46.2311C0.0166628 46.1786 0 46.1196 0 46.0539C0 45.9424 0.0366581 45.8604 0.109974 45.8079C0.183289 45.7554 0.259937 45.6931 0.339917 45.6209C0.419897 45.5488 0.459888 45.4307 0.459888 45.2667Z" fill="black"/>
<path d="M7.60814 28.3701L7.60814 19.5722H8.02804V28.3701H7.60814ZM13.5667 27.9272C13.6867 27.9272 13.7866 27.8846 13.8666 27.7993C13.9399 27.714 13.9866 27.5992 14.0066 27.4549L14.1265 26.6085C14.1465 26.4248 14.2065 26.333 14.3065 26.333C14.3465 26.333 14.3832 26.3527 14.4165 26.392C14.4431 26.4248 14.4565 26.4839 14.4565 26.5692V30.0529C14.4565 30.1316 14.4431 30.1907 14.4165 30.23C14.3832 30.2694 14.3465 30.2891 14.3065 30.2891C14.2065 30.2891 14.1465 30.1972 14.1265 30.0135L14.0066 29.1672C13.9866 29.0229 13.9399 28.9081 13.8666 28.8228C13.7866 28.7375 13.6867 28.6948 13.5667 28.6948H1.34967C1.2297 28.6948 1.13306 28.7375 1.05974 28.8228C0.97976 28.9081 0.929773 29.0229 0.909779 29.1672L0.789807 30.0135C0.769812 30.1972 0.709826 30.2891 0.609851 30.2891C0.563196 30.2891 0.526539 30.2694 0.499879 30.23C0.473218 30.1907 0.459888 30.1316 0.459888 30.0529L0.459888 26.5692C0.459888 26.4839 0.473218 26.4248 0.499879 26.392C0.526539 26.3527 0.563196 26.333 0.609851 26.333C0.709826 26.333 0.769812 26.4248 0.789807 26.6085L0.909779 27.4549C0.929773 27.5992 0.97976 27.714 1.05974 27.7993C1.13306 27.8846 1.2297 27.9272 1.34967 27.9272H13.5667ZM13.5667 19.0506C13.6867 19.0506 13.7866 19.0113 13.8666 18.9325C13.9399 18.8472 13.9866 18.7324 14.0066 18.5881L14.1265 17.7418C14.1465 17.5581 14.2065 17.4662 14.3065 17.4662C14.3465 17.4662 14.3832 17.4859 14.4165 17.5253C14.4431 17.5581 14.4565 17.6171 14.4565 17.7024V21.1861C14.4565 21.2649 14.4431 21.3239 14.4165 21.3633C14.3832 21.4026 14.3465 21.4223 14.3065 21.4223C14.2065 21.4223 14.1465 21.3305 14.1265 21.1468L14.0066 20.3004C13.9866 20.1495 13.9399 20.0347 13.8666 19.956C13.7866 19.8707 13.6867 19.8281 13.5667 19.8281H1.34967C1.2297 19.8281 1.13306 19.8707 1.05974 19.956C0.97976 20.0347 0.929773 20.1495 0.909779 20.3004L0.789807 21.1468C0.769812 21.3305 0.709826 21.4223 0.609851 21.4223C0.563196 21.4223 0.526539 21.4026 0.499879 21.3633C0.473218 21.3239 0.459888 21.2649 0.459888 21.1861L0.459888 17.7024C0.459888 17.6171 0.473218 17.5581 0.499879 17.5253C0.526539 17.4859 0.563196 17.4662 0.609851 17.4662C0.709826 17.4662 0.769812 17.5581 0.789807 17.7418L0.909779 18.5881C0.929773 18.7324 0.97976 18.8472 1.05974 18.9325C1.13306 19.0113 1.2297 19.0506 1.34967 19.0506H13.5667Z" fill="black"/>
<path d="M7.34821 8.9957V5.02977C7.34821 4.62957 7.27156 4.35402 7.11826 4.20312C6.96497 4.05223 6.66171 3.9735 6.20848 3.96693C6.13517 3.96693 6.07518 3.95709 6.02853 3.93741C5.97521 3.91117 5.94188 3.86852 5.92855 3.80948C5.88856 3.69139 5.95521 3.60938 6.1285 3.56345L8.79785 2.84506C8.87117 2.82538 8.93115 2.82538 8.97781 2.84506C9.0178 2.86474 9.04446 2.90739 9.05779 2.97299C9.06445 3.02548 9.05446 3.07468 9.0278 3.12061C8.99447 3.16653 8.94781 3.2059 8.88783 3.2387C8.56791 3.37648 8.32797 3.50441 8.16801 3.6225C8.00804 3.74059 7.9014 3.87509 7.84808 4.02598C7.7881 4.17688 7.75811 4.36058 7.75811 4.57708V8.9957H7.34821ZM0.609851 11.0525C0.563196 11.0525 0.526539 11.0361 0.499879 11.0033C0.473218 10.9639 0.459888 10.9016 0.459888 10.8163L0.459888 3.32727C0.459888 3.18294 0.419897 3.06484 0.339917 2.97299C0.259937 2.88114 0.183289 2.79585 0.109974 2.71712C0.0366581 2.63183 0 2.54326 0 2.45142C0 2.38581 0.0166628 2.33661 0.049988 2.3038C0.0766486 2.26444 0.133301 2.23491 0.219947 2.21523L2.99927 1.50668C3.05925 1.48699 3.11257 1.49028 3.15923 1.51652C3.19922 1.5362 3.22588 1.57884 3.23921 1.64445C3.24587 1.7035 3.23588 1.76254 3.20922 1.82159C3.18256 1.87408 3.1259 1.91672 3.03926 1.94952C2.55271 2.13978 2.16281 2.31036 1.86954 2.46126C1.57628 2.61215 1.35967 2.76961 1.2197 2.93363C1.07307 3.09108 0.976428 3.27478 0.929773 3.48473C0.883118 3.68811 0.859791 3.94069 0.859791 4.24248L0.859791 8.69063H13.4067C13.6267 8.69063 13.79 8.60862 13.8966 8.4446C14.0032 8.28059 14.0566 8.01488 14.0566 7.64748L14.0566 3.97678C14.0566 3.59626 13.9932 3.28462 13.8666 3.04188C13.7333 2.79257 13.4634 2.55639 13.0568 2.33332C12.6436 2.11026 12.0204 1.84455 11.1873 1.5362C11.1206 1.50996 11.074 1.48044 11.0473 1.44763C11.0206 1.41483 11.0073 1.37546 11.0073 1.32954C11.0073 1.25737 11.0306 1.21145 11.0773 1.19176C11.1239 1.16552 11.1906 1.16224 11.2772 1.18193L14.5864 1.90032C14.6731 1.92 14.7364 1.95609 14.7764 2.00857C14.8164 2.0545 14.8364 2.11026 14.8364 2.17587C14.8364 2.26116 14.8031 2.34645 14.7364 2.43174C14.6764 2.51702 14.6131 2.60887 14.5464 2.70728C14.4865 2.79913 14.4565 2.91067 14.4565 3.04188L14.4565 10.8163C14.4565 10.9016 14.4431 10.9639 14.4165 11.0033C14.3832 11.0361 14.3465 11.0525 14.3065 11.0525C14.2065 11.0525 14.1465 10.9606 14.1265 10.7769L14.0066 9.9306C13.9866 9.78626 13.9399 9.67473 13.8666 9.596C13.7866 9.51072 13.6867 9.46807 13.5667 9.46807H1.34967C1.2297 9.46807 1.13306 9.51072 1.05974 9.596C0.97976 9.67473 0.929773 9.78626 0.909779 9.9306L0.789807 10.7769C0.769812 10.9606 0.709826 11.0525 0.609851 11.0525Z" fill="black"/>
<path d="M50.4057 0.468435C50.315 1.58375 50.247 2.66561 50.2017 3.71401C50.179 4.7401 50.1677 5.53197 50.1677 6.08963C50.1677 6.55806 50.179 7.00419 50.2017 7.42801C50.2244 7.85183 50.247 8.20873 50.2697 8.49871H49.4879C49.2159 6.64729 48.7627 5.19738 48.1282 4.14898C47.4937 3.07828 46.7459 2.33101 45.8848 1.90719C45.0463 1.46107 44.1625 1.238 43.2334 1.238H42.7915C42.2023 1.238 41.7604 1.29377 41.4658 1.4053C41.1712 1.49453 40.9673 1.68413 40.854 1.97411C40.7633 2.26409 40.718 2.72137 40.718 3.34595V21.2802C40.718 21.8825 40.7633 22.3398 40.854 22.6521C40.9673 22.9421 41.1712 23.1428 41.4658 23.2544C41.7604 23.3436 42.2023 23.3882 42.7915 23.3882H43.9132C44.6611 23.3882 45.4429 23.154 46.2587 22.6855C47.0971 22.1948 47.8676 21.3695 48.5701 20.2095C49.2726 19.0496 49.8051 17.4659 50.1677 15.4583H50.9495C50.8815 16.2613 50.8475 17.2874 50.8475 18.5366C50.8475 19.0942 50.8589 19.8973 50.8815 20.9456C50.9042 21.9717 50.9722 23.0424 51.0855 24.1578C49.9298 24.1131 48.6268 24.0908 47.1764 24.0908C45.7261 24.0685 44.4344 24.0574 43.3014 24.0574C42.6895 24.0574 41.9077 24.0574 40.956 24.0574C40.0269 24.0574 39.0071 24.0685 37.8967 24.0908C36.809 24.0908 35.6986 24.102 34.5655 24.1243C33.4551 24.1243 32.4014 24.1355 31.4043 24.1578V23.4886C32.1068 23.444 32.628 23.3547 32.9679 23.2209C33.3078 23.0871 33.5344 22.8194 33.6477 22.4179C33.7611 22.0164 33.8177 21.4141 33.8177 20.6111V4.01514C33.8177 3.18981 33.7611 2.58754 33.6477 2.20833C33.5344 1.80681 33.2965 1.53914 32.9339 1.4053C32.594 1.24916 32.0841 1.15993 31.4043 1.13762V0.468435C32.4014 0.490741 33.4551 0.513048 34.5655 0.535354C35.6986 0.535354 36.809 0.546506 37.8967 0.568813C39.0071 0.568813 40.0269 0.568813 40.956 0.568813C41.9077 0.568813 42.6895 0.568813 43.3014 0.568813C44.3438 0.568813 45.5222 0.568813 46.8365 0.568813C48.1735 0.546506 49.3632 0.513047 50.4057 0.468435ZM45.4769 11.9116C45.4769 11.9116 45.4769 12.0231 45.4769 12.2462C45.4769 12.4692 45.4769 12.5808 45.4769 12.5808H39.6983C39.6983 12.5808 39.6983 12.4692 39.6983 12.2462C39.6983 12.0231 39.6983 11.9116 39.6983 11.9116H45.4769ZM46.4626 7.49493C46.372 8.76639 46.3267 9.73672 46.3267 10.4059C46.3493 11.0751 46.3606 11.6885 46.3606 12.2462C46.3606 12.8038 46.372 13.4173 46.3946 14.0865C46.4173 14.7556 46.474 15.726 46.5646 16.9974H45.7828C45.6468 16.1721 45.3636 15.4248 44.933 14.7556C44.5251 14.0865 43.9926 13.5623 43.3354 13.183C42.6782 12.7815 41.9191 12.5808 41.0579 12.5808V11.9116C41.6925 11.9116 42.2703 11.7777 42.7915 11.5101C43.3127 11.2424 43.7659 10.8855 44.1512 10.4394C44.5591 9.99324 44.8877 9.51365 45.1369 9.00061C45.4089 8.48756 45.5902 7.98567 45.6808 7.49493H46.4626Z" fill="black"/>
<path d="M71.1879 0.468435L79.4139 21.3472C79.7311 22.1056 80.071 22.6521 80.4336 22.9867C80.7962 23.299 81.1248 23.4663 81.4194 23.4886V24.1578C80.6036 24.1131 79.6518 24.0908 78.5641 24.0908C77.4763 24.0685 76.3659 24.0574 75.2329 24.0574C74.0772 24.0574 72.9894 24.0685 71.9697 24.0908C70.9499 24.0908 70.1341 24.1131 69.5223 24.1578V23.4886C70.678 23.444 71.4031 23.2544 71.6977 22.9198C72.015 22.5629 71.947 21.8156 71.4938 20.678L66.0551 5.85541L66.735 4.68433L62.0441 16.6963C61.4776 18.1462 61.1263 19.3173 60.9904 20.2095C60.877 21.0795 60.9337 21.7487 61.1603 22.2171C61.3869 22.6855 61.7495 23.009 62.248 23.1874C62.7466 23.3659 63.3358 23.4663 64.0156 23.4886V24.1578C63.1772 24.1131 62.418 24.0908 61.7382 24.0908C61.081 24.0685 60.3558 24.0574 59.5627 24.0574C59.1321 24.0574 58.6676 24.0685 58.169 24.0908C57.6932 24.0908 57.2853 24.1131 56.9453 24.1578V23.4886C57.4665 23.3993 57.9764 23.0759 58.475 22.5182C58.9962 21.9383 59.5287 20.9568 60.0726 19.5738L67.6187 0.468435C68.1626 0.513047 68.7518 0.535354 69.3863 0.535354C70.0435 0.535354 70.644 0.513047 71.1879 0.468435ZM72.3776 14.5214V15.1906H62.248L62.588 14.5214H72.3776Z" fill="black"/>
<path d="M106.55 0.468435C106.459 1.78451 106.391 3.05597 106.346 4.28282C106.323 5.50967 106.312 6.44653 106.312 7.09341C106.312 7.56185 106.323 8.00797 106.346 8.43179C106.368 8.85562 106.391 9.21252 106.414 9.5025H105.632C105.111 7.40571 104.476 5.75504 103.728 4.55049C103.003 3.34595 102.221 2.49831 101.383 2.00757C100.567 1.49452 99.7512 1.238 98.9354 1.238H98.9015V20.3768C98.9015 21.2914 98.9921 21.9717 99.1734 22.4179C99.3773 22.864 99.7512 23.154 100.295 23.2878C100.839 23.4217 101.632 23.4886 102.675 23.4886V24.1578C101.881 24.1355 100.805 24.1131 99.4453 24.0908C98.1083 24.0685 96.7033 24.0574 95.2303 24.0574C93.8254 24.0574 92.4997 24.0685 91.2533 24.0908C90.007 24.1131 88.9985 24.1355 88.2281 24.1578V23.4886C89.2705 23.4886 90.0636 23.4217 90.6075 23.2878C91.1513 23.154 91.5139 22.864 91.6952 22.4179C91.8992 21.9717 92.0011 21.2914 92.0011 20.3768V1.238H91.9671C91.1513 1.238 90.3242 1.49452 89.4858 2.00757C88.67 2.49831 87.8995 3.34595 87.1743 4.55049C86.4492 5.73273 85.8146 7.3834 85.2708 9.5025H84.489C84.5343 9.21252 84.557 8.85562 84.557 8.43179C84.5796 8.00797 84.5909 7.56185 84.5909 7.09341C84.5909 6.44653 84.5683 5.50967 84.523 4.28282C84.5003 3.05597 84.4437 1.78451 84.353 0.468435C85.4407 0.490741 86.6418 0.513048 87.9561 0.535354C89.2705 0.55766 90.5848 0.568813 91.8992 0.568813C93.2135 0.568813 94.4032 0.568813 95.4683 0.568813C96.5334 0.568813 97.7231 0.568813 99.0374 0.568813C100.352 0.568813 101.666 0.55766 102.98 0.535354C104.295 0.513048 105.485 0.490741 106.55 0.468435Z" fill="black"/>
<path d="M157.551 0.468435V1.13762C157.029 1.38299 156.486 1.86258 155.919 2.57638C155.353 3.29019 154.843 4.37204 154.389 5.82195L148.679 24.1578C148.407 24.1355 148.112 24.1243 147.795 24.1243C147.5 24.102 147.195 24.0908 146.877 24.0908C146.583 24.0908 146.277 24.102 145.959 24.1243C145.665 24.1243 145.382 24.1355 145.11 24.1578L137.971 2.71022C137.79 2.13026 137.552 1.72874 137.258 1.50568C136.963 1.28262 136.623 1.15993 136.238 1.13762V0.468435C137.008 0.490741 137.915 0.513048 138.957 0.535354C140 0.55766 141.053 0.568813 142.118 0.568813C143.184 0.568813 144.181 0.55766 145.11 0.535354C146.061 0.513048 146.821 0.490741 147.387 0.468435V1.13762C146.685 1.15993 146.141 1.24916 145.756 1.4053C145.37 1.53914 145.144 1.80681 145.076 2.20833C145.03 2.58754 145.144 3.1675 145.416 3.94822L150.073 17.8674L149.087 19.9084L152.52 9.10099C153.154 7.11572 153.46 5.55428 153.438 4.41665C153.415 3.25673 153.143 2.43139 152.622 1.94065C152.101 1.42761 151.387 1.15993 150.48 1.13762V0.468435C151.342 0.490741 152.101 0.513048 152.758 0.535354C153.438 0.55766 154.163 0.568813 154.933 0.568813C155.387 0.568813 155.851 0.55766 156.327 0.535354C156.803 0.513048 157.211 0.490741 157.551 0.468435ZM132.975 0.468435V1.13762C132.589 1.20454 132.329 1.4053 132.193 1.7399C132.08 2.05218 132.046 2.42024 132.091 2.84406C132.159 3.24557 132.25 3.61363 132.363 3.94822L137.496 18.1685L136.544 19.6073L140.623 8.73293L141.099 9.70326L135.898 24.1578C135.626 24.1355 135.331 24.1243 135.014 24.1243C134.72 24.102 134.414 24.0908 134.096 24.0908C133.802 24.0908 133.496 24.102 133.179 24.1243C132.884 24.1243 132.601 24.1355 132.329 24.1578L124.443 3.27903C124.148 2.49831 123.82 1.95181 123.457 1.63952C123.094 1.32723 122.755 1.15993 122.437 1.13762V0.468435C123.253 0.490741 124.205 0.513048 125.293 0.535354C126.403 0.55766 127.457 0.568813 128.454 0.568813C129.451 0.568813 130.335 0.55766 131.105 0.535354C131.876 0.513048 132.499 0.490741 132.975 0.468435Z" fill="black"/>
<path d="M182.323 0.468435C182.232 1.58375 182.164 2.66561 182.119 3.71401C182.096 4.7401 182.085 5.53197 182.085 6.08963C182.085 6.55806 182.096 7.00419 182.119 7.42801C182.141 7.85183 182.164 8.20873 182.187 8.49871H181.405C181.133 6.64729 180.68 5.19738 180.045 4.14898C179.411 3.07828 178.663 2.33101 177.802 1.90719C176.963 1.46107 176.08 1.238 175.15 1.238H174.709C174.119 1.238 173.677 1.29377 173.383 1.4053C173.088 1.49453 172.884 1.68413 172.771 1.97411C172.68 2.26409 172.635 2.72137 172.635 3.34595V21.2802C172.635 21.8825 172.68 22.3398 172.771 22.6521C172.884 22.9421 173.088 23.1428 173.383 23.2544C173.677 23.3436 174.119 23.3882 174.709 23.3882H175.83C176.578 23.3882 177.36 23.154 178.176 22.6855C179.014 22.1948 179.785 21.3695 180.487 20.2095C181.19 19.0496 181.722 17.4659 182.085 15.4583H182.867C182.799 16.2613 182.765 17.2874 182.765 18.5366C182.765 19.0942 182.776 19.8973 182.799 20.9456C182.821 21.9717 182.889 23.0424 183.002 24.1578C181.847 24.1131 180.544 24.0908 179.093 24.0908C177.643 24.0685 176.351 24.0574 175.218 24.0574C174.607 24.0574 173.825 24.0574 172.873 24.0574C171.944 24.0574 170.924 24.0685 169.814 24.0908C168.726 24.0908 167.616 24.102 166.483 24.1243C165.372 24.1243 164.318 24.1355 163.321 24.1578V23.4886C164.024 23.444 164.545 23.3547 164.885 23.2209C165.225 23.0871 165.451 22.8194 165.565 22.4179C165.678 22.0164 165.735 21.4141 165.735 20.6111V4.01514C165.735 3.18981 165.678 2.58754 165.565 2.20833C165.451 1.80681 165.213 1.53914 164.851 1.4053C164.511 1.24916 164.001 1.15993 163.321 1.13762V0.468435C164.318 0.490741 165.372 0.513048 166.483 0.535354C167.616 0.535354 168.726 0.546506 169.814 0.568813C170.924 0.568813 171.944 0.568813 172.873 0.568813C173.825 0.568813 174.607 0.568813 175.218 0.568813C176.261 0.568813 177.439 0.568813 178.754 0.568813C180.091 0.546506 181.28 0.513047 182.323 0.468435ZM177.394 11.9116C177.394 11.9116 177.394 12.0231 177.394 12.2462C177.394 12.4692 177.394 12.5808 177.394 12.5808H171.615C171.615 12.5808 171.615 12.4692 171.615 12.2462C171.615 12.0231 171.615 11.9116 171.615 11.9116H177.394ZM178.38 7.49493C178.289 8.76639 178.244 9.73672 178.244 10.4059C178.266 11.0751 178.278 11.6885 178.278 12.2462C178.278 12.8038 178.289 13.4173 178.312 14.0865C178.334 14.7556 178.391 15.726 178.482 16.9974H177.7C177.564 16.1721 177.281 15.4248 176.85 14.7556C176.442 14.0865 175.91 13.5623 175.252 13.183C174.595 12.7815 173.836 12.5808 172.975 12.5808V11.9116C173.609 11.9116 174.187 11.7777 174.709 11.5101C175.23 11.2424 175.683 10.8855 176.068 10.4394C176.476 9.99324 176.805 9.51365 177.054 9.00061C177.326 8.48756 177.507 7.98567 177.598 7.49493H178.38Z" fill="black"/>
<path d="M202.595 0.468435V1.13762C201.825 1.15993 201.235 1.24916 200.827 1.4053C200.442 1.53914 200.182 1.80681 200.046 2.20833C199.91 2.58754 199.842 3.18981 199.842 4.01514V21.2802C199.842 21.8825 199.887 22.3398 199.978 22.6521C200.068 22.9421 200.238 23.1428 200.488 23.2544C200.737 23.3436 201.099 23.3882 201.575 23.3882H202.697C203.286 23.3882 203.921 23.1651 204.601 22.719C205.28 22.2729 205.938 21.6595 206.572 20.8787C207.229 20.098 207.796 19.2169 208.272 18.2354C208.747 17.2316 209.087 16.1944 209.291 15.1237H210.073C210.005 15.9267 209.971 16.9528 209.971 18.202C209.971 18.7819 209.983 19.6296 210.005 20.7449C210.028 21.8379 210.096 22.9755 210.209 24.1578C209.053 24.1131 207.75 24.0908 206.3 24.0908C204.85 24.0685 203.558 24.0574 202.425 24.0574C201.813 24.0574 201.031 24.0574 200.08 24.0574C199.15 24.0574 198.131 24.0685 197.02 24.0908C195.933 24.0908 194.822 24.102 193.689 24.1243C192.579 24.1243 191.525 24.1355 190.528 24.1578V23.4886C191.23 23.444 191.752 23.3547 192.092 23.2209C192.431 23.0871 192.658 22.8194 192.771 22.4179C192.885 22.0164 192.941 21.4141 192.941 20.6111V4.01514C192.941 3.18981 192.885 2.58754 192.771 2.20833C192.658 1.80681 192.42 1.53914 192.058 1.4053C191.718 1.24916 191.208 1.15993 190.528 1.13762V0.468435C191.185 0.490741 192.046 0.513048 193.111 0.535354C194.199 0.55766 195.355 0.568813 196.578 0.568813C197.712 0.568813 198.822 0.55766 199.91 0.535354C200.997 0.513048 201.893 0.490741 202.595 0.468435Z" fill="black"/>
<path d="M228.972 0.468435V1.13762C228.201 1.15993 227.612 1.24916 227.204 1.4053C226.819 1.53914 226.558 1.80681 226.422 2.20833C226.286 2.58754 226.218 3.18981 226.218 4.01514V21.2802C226.218 21.8825 226.264 22.3398 226.354 22.6521C226.445 22.9421 226.615 23.1428 226.864 23.2544C227.114 23.3436 227.476 23.3882 227.952 23.3882H229.074C229.663 23.3882 230.297 23.1651 230.977 22.719C231.657 22.2729 232.314 21.6595 232.949 20.8787C233.606 20.098 234.172 19.2169 234.648 18.2354C235.124 17.2316 235.464 16.1944 235.668 15.1237H236.45C236.382 15.9267 236.348 16.9528 236.348 18.202C236.348 18.7819 236.359 19.6296 236.382 20.7449C236.405 21.8379 236.473 22.9755 236.586 24.1578C235.43 24.1131 234.127 24.0908 232.677 24.0908C231.227 24.0685 229.935 24.0574 228.802 24.0574C228.19 24.0574 227.408 24.0574 226.456 24.0574C225.527 24.0574 224.507 24.0685 223.397 24.0908C222.309 24.0908 221.199 24.102 220.066 24.1243C218.956 24.1243 217.902 24.1355 216.905 24.1578V23.4886C217.607 23.444 218.128 23.3547 218.468 23.2209C218.808 23.0871 219.035 22.8194 219.148 22.4179C219.261 22.0164 219.318 21.4141 219.318 20.6111V4.01514C219.318 3.18981 219.261 2.58754 219.148 2.20833C219.035 1.80681 218.797 1.53914 218.434 1.4053C218.094 1.24916 217.585 1.15993 216.905 1.13762V0.468435C217.562 0.490741 218.423 0.513048 219.488 0.535354C220.576 0.55766 221.732 0.568813 222.955 0.568813C224.088 0.568813 225.199 0.55766 226.286 0.535354C227.374 0.513048 228.269 0.490741 228.972 0.468435Z" fill="black"/>
<path d="M269.667 24.1578V23.4886C270.37 23.444 270.891 23.3547 271.231 23.2209C271.571 23.0871 271.797 22.8194 271.911 22.4179C272.024 22.0164 272.081 21.4141 272.081 20.6111V4.01514C272.081 3.18981 272.024 2.58754 271.911 2.20833C271.797 1.80681 271.559 1.53914 271.197 1.4053C270.857 1.24916 270.347 1.15993 269.667 1.13762V0.468435C270.37 0.490741 271.265 0.513048 272.353 0.535354C273.463 0.55766 274.573 0.568813 275.684 0.568813C276.839 0.568813 277.927 0.55766 278.947 0.535354C279.967 0.513048 280.783 0.490741 281.394 0.468435V1.13762C280.715 1.15993 280.193 1.24916 279.831 1.4053C279.491 1.53914 279.264 1.80681 279.151 2.20833C279.038 2.58754 278.981 3.18981 278.981 4.01514V20.6111C278.981 21.4141 279.038 22.0164 279.151 22.4179C279.287 22.8194 279.525 23.0871 279.865 23.2209C280.205 23.3547 280.715 23.444 281.394 23.4886V24.1578C280.783 24.1131 279.967 24.0908 278.947 24.0908C277.927 24.0685 276.839 24.0574 275.684 24.0574C274.573 24.0574 273.463 24.0685 272.353 24.0908C271.265 24.0908 270.37 24.1131 269.667 24.1578ZM255.119 24.1578V23.4886C255.821 23.444 256.342 23.3547 256.682 23.2209C257.022 23.0871 257.249 22.8194 257.362 22.4179C257.476 22.0164 257.532 21.4141 257.532 20.6111V4.01514C257.532 3.18981 257.476 2.58754 257.362 2.20833C257.249 1.80681 257.011 1.53914 256.648 1.4053C256.308 1.24916 255.799 1.15993 255.119 1.13762V0.468435C255.776 0.490741 256.637 0.513048 257.702 0.535354C258.79 0.55766 259.946 0.568813 261.169 0.568813C262.234 0.568813 263.277 0.55766 264.297 0.535354C265.339 0.513048 266.189 0.490741 266.846 0.468435V1.13762C266.166 1.15993 265.645 1.24916 265.282 1.4053C264.942 1.53914 264.716 1.80681 264.602 2.20833C264.489 2.58754 264.433 3.18981 264.433 4.01514V20.6111C264.433 21.4141 264.489 22.0164 264.602 22.4179C264.738 22.8194 264.976 23.0871 265.316 23.2209C265.656 23.3547 266.166 23.444 266.846 23.4886V24.1578C266.189 24.1131 265.339 24.0908 264.297 24.0908C263.277 24.0685 262.234 24.0574 261.169 24.0574C259.946 24.0574 258.79 24.0685 257.702 24.0908C256.637 24.0908 255.776 24.1131 255.119 24.1578ZM261.543 12.5808V11.9116H274.97V12.5808H261.543Z" fill="black"/>
<path d="M301.255 0C303.816 0 306.06 0.479587 307.986 1.43876C309.912 2.39793 311.408 3.78092 312.473 5.58774C313.538 7.37224 314.07 9.54711 314.07 12.1123C314.07 14.6107 313.526 16.7967 312.439 18.6704C311.351 20.5441 309.833 22.0052 307.884 23.0536C305.958 24.102 303.737 24.6262 301.221 24.6262C298.661 24.6262 296.417 24.1466 294.491 23.1874C292.565 22.2283 291.069 20.8453 290.004 19.0385C288.939 17.2316 288.406 15.0568 288.406 12.5139C288.406 10.0155 288.95 7.82953 290.038 5.95579C291.148 4.08206 292.667 2.621 294.593 1.5726C296.519 0.524199 298.74 0 301.255 0ZM301.119 0.602271C299.986 0.602271 299.001 1.10416 298.162 2.10795C297.324 3.11174 296.678 4.49473 296.225 6.25693C295.771 8.01913 295.545 10.0602 295.545 12.38C295.545 14.7445 295.805 16.8078 296.327 18.57C296.848 20.3099 297.55 21.6595 298.434 22.6186C299.318 23.5555 300.292 24.0239 301.357 24.0239C302.49 24.0239 303.476 23.522 304.315 22.5182C305.153 21.5145 305.799 20.1315 306.252 18.3693C306.705 16.5848 306.932 14.5437 306.932 12.2462C306.932 9.8594 306.671 7.79606 306.15 6.05617C305.629 4.31628 304.926 2.9779 304.043 2.04103C303.159 1.08186 302.184 0.602271 301.119 0.602271Z" fill="black"/>
<path d="M343.38 0.468435V1.13762C342.7 1.27146 342.179 1.50568 341.816 1.84027C341.477 2.17487 341.25 2.69907 341.137 3.41287C341.023 4.10437 340.967 5.08585 340.967 6.35731V14.421C340.967 15.804 340.865 17.109 340.661 18.3358C340.479 19.5627 340.117 20.6222 339.573 21.5145C338.984 22.4736 338.1 23.232 336.922 23.7897C335.766 24.3474 334.214 24.6262 332.265 24.6262C331.222 24.6262 330.123 24.5147 328.968 24.2916C327.812 24.0685 326.781 23.6447 325.874 23.0201C325.104 22.4625 324.515 21.7821 324.107 20.9791C323.699 20.1761 323.427 19.2392 323.291 18.1685C323.155 17.0978 323.087 15.8821 323.087 14.5214V4.01514C323.087 3.18981 323.03 2.58754 322.917 2.20833C322.804 1.80681 322.577 1.53914 322.237 1.4053C321.897 1.24916 321.376 1.15993 320.674 1.13762V0.468435C321.331 0.490741 322.192 0.513048 323.257 0.535354C324.345 0.55766 325.478 0.568813 326.656 0.568813C327.835 0.568813 328.968 0.55766 330.055 0.535354C331.143 0.513048 332.038 0.490741 332.741 0.468435V1.13762C331.97 1.15993 331.381 1.24916 330.973 1.4053C330.588 1.53914 330.327 1.80681 330.191 2.20833C330.055 2.58754 329.987 3.18981 329.987 4.01514V17.6666C329.987 18.7596 330.078 19.6853 330.259 20.4438C330.441 21.1799 330.701 21.771 331.041 22.2171C331.404 22.6632 331.846 22.9867 332.367 23.1874C332.911 23.3659 333.534 23.4551 334.236 23.4551C335.755 23.4551 336.944 23.0982 337.805 22.3844C338.667 21.6483 339.278 20.6334 339.641 19.3396C340.004 18.0235 340.185 16.5067 340.185 14.7891V7.0265C340.185 5.53197 340.117 4.39435 339.981 3.61363C339.868 2.8106 339.573 2.23063 339.097 1.87373C338.621 1.51683 337.839 1.27146 336.752 1.13762V0.468435C337.205 0.490741 337.794 0.513048 338.519 0.535354C339.244 0.55766 339.924 0.568813 340.559 0.568813C341.08 0.568813 341.59 0.55766 342.088 0.535354C342.61 0.513048 343.04 0.490741 343.38 0.468435Z" fill="black"/>
<path d="M359.164 0C360.637 0 361.782 0.144991 362.598 0.434974C363.413 0.724956 364.105 1.02609 364.671 1.33838C364.943 1.49453 365.158 1.61721 365.317 1.70644C365.498 1.77335 365.668 1.80681 365.827 1.80681C366.053 1.80681 366.212 1.68413 366.303 1.43876C366.416 1.19339 366.507 0.825335 366.575 0.334597H367.356C367.334 0.803029 367.3 1.34953 367.255 1.97411C367.232 2.59869 367.209 3.42402 367.187 4.45011C367.187 5.47621 367.187 6.82574 367.187 8.49871H366.405C366.314 7.27187 366.019 6.07848 365.521 4.91855C365.045 3.75862 364.377 2.79945 363.515 2.04103C362.677 1.28261 361.669 0.903407 360.49 0.903407C359.493 0.903407 358.666 1.17108 358.009 1.70644C357.352 2.24179 357.023 3.01136 357.023 4.01514C357.023 4.84048 357.227 5.55428 357.635 6.15655C358.043 6.73651 358.677 7.34994 359.538 7.99682C360.422 8.64371 361.578 9.45789 363.006 10.4394C364.025 11.1309 364.943 11.8224 365.759 12.5139C366.597 13.2054 367.266 13.9861 367.764 14.856C368.263 15.726 368.512 16.7744 368.512 18.0012C368.512 19.4957 368.082 20.7337 367.22 21.7152C366.382 22.6967 365.26 23.4328 363.855 23.9235C362.45 24.392 360.921 24.6262 359.266 24.6262C357.725 24.6262 356.49 24.4924 355.561 24.2247C354.655 23.957 353.884 23.6782 353.25 23.3882C352.751 23.0759 352.366 22.9198 352.094 22.9198C351.868 22.9198 351.698 23.0424 351.584 23.2878C351.494 23.5332 351.414 23.9012 351.346 24.392H350.565C350.61 23.812 350.633 23.1428 350.633 22.3844C350.655 21.6037 350.667 20.5999 350.667 19.3731C350.689 18.1462 350.701 16.5848 350.701 14.6887H351.482C351.573 16.2502 351.822 17.7112 352.23 19.0719C352.661 20.4326 353.307 21.5368 354.168 22.3844C355.051 23.2097 356.219 23.6224 357.669 23.6224C358.507 23.6224 359.221 23.4997 359.81 23.2544C360.422 22.9867 360.898 22.6075 361.238 22.1167C361.578 21.626 361.748 21.0349 361.748 20.3434C361.748 19.4065 361.533 18.5923 361.102 17.9008C360.671 17.187 360.082 16.529 359.334 15.9267C358.609 15.3021 357.759 14.6776 356.785 14.053C355.72 13.3392 354.723 12.6254 353.794 11.9116C352.865 11.1978 352.117 10.3948 351.55 9.5025C351.006 8.61025 350.735 7.5507 350.735 6.32385C350.735 4.85163 351.131 3.65824 351.924 2.74368C352.717 1.80681 353.76 1.11532 355.051 0.669191C356.343 0.223064 357.714 0 359.164 0Z" fill="black"/>
<path d="M394.797 0.468435C394.707 1.58375 394.639 2.66561 394.593 3.71401C394.571 4.7401 394.559 5.53197 394.559 6.08963C394.559 6.55806 394.571 7.00419 394.593 7.42801C394.616 7.85183 394.639 8.20873 394.661 8.49871H393.88C393.608 6.64729 393.154 5.19738 392.52 4.14898C391.885 3.07828 391.138 2.33101 390.276 1.90719C389.438 1.46107 388.554 1.238 387.625 1.238H387.183C386.594 1.238 386.152 1.29377 385.857 1.4053C385.563 1.49453 385.359 1.68413 385.246 1.97411C385.155 2.26409 385.11 2.72137 385.11 3.34595V21.2802C385.11 21.8825 385.155 22.3398 385.246 22.6521C385.359 22.9421 385.563 23.1428 385.857 23.2544C386.152 23.3436 386.594 23.3882 387.183 23.3882H388.305C389.053 23.3882 389.835 23.154 390.65 22.6855C391.489 22.1948 392.259 21.3695 392.962 20.2095C393.664 19.0496 394.197 17.4659 394.559 15.4583H395.341C395.273 16.2613 395.239 17.2874 395.239 18.5366C395.239 19.0942 395.251 19.8973 395.273 20.9456C395.296 21.9717 395.364 23.0424 395.477 24.1578C394.321 24.1131 393.018 24.0908 391.568 24.0908C390.118 24.0685 388.826 24.0574 387.693 24.0574C387.081 24.0574 386.299 24.0574 385.348 24.0574C384.419 24.0574 383.399 24.0685 382.288 24.0908C381.201 24.0908 380.09 24.102 378.957 24.1243C377.847 24.1243 376.793 24.1355 375.796 24.1578V23.4886C376.498 23.444 377.02 23.3547 377.36 23.2209C377.699 23.0871 377.926 22.8194 378.039 22.4179C378.153 22.0164 378.209 21.4141 378.209 20.6111V4.01514C378.209 3.18981 378.153 2.58754 378.039 2.20833C377.926 1.80681 377.688 1.53914 377.326 1.4053C376.986 1.24916 376.476 1.15993 375.796 1.13762V0.468435C376.793 0.490741 377.847 0.513048 378.957 0.535354C380.09 0.535354 381.201 0.546506 382.288 0.568813C383.399 0.568813 384.419 0.568813 385.348 0.568813C386.299 0.568813 387.081 0.568813 387.693 0.568813C388.735 0.568813 389.914 0.568813 391.228 0.568813C392.565 0.546506 393.755 0.513047 394.797 0.468435ZM389.869 11.9116C389.869 11.9116 389.869 12.0231 389.869 12.2462C389.869 12.4692 389.869 12.5808 389.869 12.5808H384.09C384.09 12.5808 384.09 12.4692 384.09 12.2462C384.09 12.0231 384.09 11.9116 384.09 11.9116H389.869ZM390.854 7.49493C390.764 8.76639 390.718 9.73672 390.718 10.4059C390.741 11.0751 390.752 11.6885 390.752 12.2462C390.752 12.8038 390.764 13.4173 390.786 14.0865C390.809 14.7556 390.866 15.726 390.956 16.9974H390.174C390.038 16.1721 389.755 15.4248 389.325 14.7556C388.917 14.0865 388.384 13.5623 387.727 13.183C387.07 12.7815 386.311 12.5808 385.45 12.5808V11.9116C386.084 11.9116 386.662 11.7777 387.183 11.5101C387.704 11.2424 388.158 10.8855 388.543 10.4394C388.951 9.99324 389.279 9.51365 389.529 9.00061C389.801 8.48756 389.982 7.98567 390.072 7.49493H390.854Z" fill="black"/>
<path d="M30.4531 44.2847H133.428V45.2688H30.4531V44.2847Z" fill="black"/>
</svg>
