<svg width="447" height="152" viewBox="0 0 447 152" fill="none" xmlns="http://www.w3.org/2000/svg">
<path d="M74 140H104" stroke="black" stroke-width="2" stroke-miterlimit="10" stroke-linecap="round"/>
<path d="M344 140H374" stroke="black" stroke-width="2" stroke-miterlimit="10" stroke-linecap="round"/>
<path d="M74 57H374" stroke="black" stroke-width="2" stroke-miterlimit="10" stroke-linecap="round"/>
<path d="M250.324 15.0421C248.808 15.0421 247.352 15.2996 245.989 15.7542C242.868 6.59633 234.214 0 223.999 0C213.784 0 205.13 6.59633 202.009 15.7542C200.645 15.2996 199.192 15.0421 197.674 15.0421C190.122 15.0421 184 21.1638 184 28.7162C184 29.4349 184.058 30.138 184.166 30.8254C184.168 30.8075 184.168 30.7873 184.17 30.7672C184.202 30.9754 184.251 31.1791 184.291 31.3829C184.363 31.7434 184.446 32.0994 184.546 32.4487C184.611 32.6771 184.67 32.91 184.748 33.1316C184.911 33.6085 185.106 34.072 185.319 34.5243C185.411 34.7191 185.507 34.9117 185.608 35.102C185.856 35.57 186.125 36.0268 186.425 36.4611C186.503 36.5753 186.591 36.685 186.673 36.797C187.007 37.247 187.356 37.6837 187.742 38.0889C187.768 38.1181 187.791 38.1472 187.818 38.1763C188.263 38.6375 188.742 39.0652 189.248 39.4615C189.287 39.4906 189.322 39.522 189.36 39.5511C189.884 39.9519 190.435 40.3213 191.015 40.6437L191.024 40.6482C191.62 40.9818 192.244 41.2707 192.891 41.5125V41.5237C194.38 42.0812 195.993 42.3902 197.679 42.3902C201.198 42.3902 204.396 41.049 206.821 38.8659C211.073 43.5411 217.185 46.4944 224.003 46.4944C236.15 46.4944 246.105 37.1754 247.146 25.2993C247.205 25.9755 247.249 26.6585 247.249 27.3503C247.249 40.1892 236.842 50.5964 224.003 50.5964C217.185 50.5964 211.073 47.6431 206.821 42.9679C204.398 45.1532 201.198 46.4922 197.679 46.4922C195.993 46.4922 194.385 46.172 192.891 45.6145V56.7494H255.111V41.5125C260.299 39.5712 264 34.5825 264 28.7162C263.998 21.166 257.876 15.0421 250.324 15.0421Z" fill="black"/>
<path d="M120.85 135.8C121.65 133.9 123.375 132.85 125.825 132.85V134.075C125.725 134.075 125.625 134.05 125.525 134.05C122.625 134.05 120.9 135.975 120.9 139.2V146H119.65V132.95H120.85V135.8ZM141.072 139.425C141.072 139.525 141.047 139.65 141.047 139.775H129.822C129.947 142.875 132.222 144.975 135.347 144.975C136.997 144.975 138.522 144.375 139.522 143.15L140.247 143.975C139.097 145.375 137.297 146.1 135.322 146.1C131.372 146.1 128.597 143.35 128.597 139.475C128.597 135.6 131.272 132.85 134.847 132.85C138.422 132.85 141.072 135.55 141.072 139.425ZM134.847 133.95C132.072 133.95 130.047 135.95 129.847 138.8H139.847C139.672 135.975 137.622 133.95 134.847 133.95ZM149.114 146.1C146.964 146.1 144.914 145.375 143.889 144.425L144.464 143.425C145.464 144.275 147.239 145 149.164 145C151.914 145 153.014 144.025 153.014 142.55C153.014 138.75 144.364 141.55 144.364 136.425C144.364 134.45 146.014 132.85 149.314 132.85C150.964 132.85 152.764 133.35 153.789 134.125L153.214 135.125C152.114 134.325 150.689 133.95 149.289 133.95C146.739 133.95 145.614 135 145.614 136.4C145.614 140.325 154.264 137.55 154.264 142.525C154.264 144.65 152.439 146.1 149.114 146.1ZM164.578 144.3L165.103 145.175C164.453 145.8 163.403 146.1 162.428 146.1C160.128 146.1 158.878 144.75 158.878 142.55V134.025H156.478V132.95H158.878V130.1H160.128V132.95H164.278V134.025H160.128V142.425C160.128 144.1 160.953 145.025 162.553 145.025C163.328 145.025 164.053 144.775 164.578 144.3ZM173.863 132.85C177.088 132.85 178.888 134.5 178.888 137.725V146H177.688V143.675C176.863 145.175 175.263 146.1 172.988 146.1C170.063 146.1 168.288 144.6 168.288 142.375C168.288 140.4 169.538 138.725 173.163 138.725H177.638V137.675C177.638 135.25 176.313 133.95 173.763 133.95C171.963 133.95 170.338 134.625 169.263 135.6L168.638 134.7C169.938 133.55 171.838 132.85 173.863 132.85ZM173.163 145.075C175.363 145.075 176.888 144.025 177.638 142.15V139.7H173.188C170.488 139.7 169.538 140.825 169.538 142.325C169.538 144.025 170.863 145.075 173.163 145.075ZM195.089 132.95H196.339V146H195.139V143.2C194.289 145.025 192.514 146.1 190.214 146.1C186.889 146.1 184.764 144.225 184.764 140.575V132.95H186.014V140.475C186.014 143.425 187.589 144.975 190.314 144.975C193.264 144.975 195.089 143 195.089 139.9V132.95ZM203.712 135.8C204.512 133.9 206.237 132.85 208.687 132.85V134.075C208.587 134.075 208.487 134.05 208.387 134.05C205.487 134.05 203.762 135.975 203.762 139.2V146H202.512V132.95H203.712V135.8ZM217.406 132.85C220.631 132.85 222.431 134.5 222.431 137.725V146H221.231V143.675C220.406 145.175 218.806 146.1 216.531 146.1C213.606 146.1 211.831 144.6 211.831 142.375C211.831 140.4 213.081 138.725 216.706 138.725H221.181V137.675C221.181 135.25 219.856 133.95 217.306 133.95C215.506 133.95 213.881 134.625 212.806 135.6L212.181 134.7C213.481 133.55 215.381 132.85 217.406 132.85ZM216.706 145.075C218.906 145.075 220.431 144.025 221.181 142.15V139.7H216.731C214.031 139.7 213.081 140.825 213.081 142.325C213.081 144.025 214.406 145.075 216.706 145.075ZM234.832 132.85C238.007 132.85 240.132 134.725 240.132 138.375V146H238.882V138.475C238.882 135.525 237.307 133.975 234.657 133.975C231.582 133.975 229.707 135.95 229.707 139.05V146H228.457V132.95H229.657V135.775C230.532 133.95 232.357 132.85 234.832 132.85ZM252.103 144.3L252.628 145.175C251.978 145.8 250.928 146.1 249.953 146.1C247.653 146.1 246.403 144.75 246.403 142.55V134.025H244.003V132.95H246.403V130.1H247.653V132.95H251.803V134.025H247.653V142.425C247.653 144.1 248.478 145.025 250.078 145.025C250.853 145.025 251.578 144.775 252.103 144.3ZM277.735 145.425L276.985 146.25L274.46 143.6C273.035 145.275 271.035 146.125 268.635 146.125C265.31 146.125 262.935 144.35 262.935 141.75C262.935 139.725 264.135 138.2 267.46 136.25L267.435 136.2C265.66 134.35 265.185 133.325 265.185 131.975C265.185 129.825 266.785 128.4 269.335 128.4C271.685 128.4 273.185 129.65 273.185 131.725C273.185 133.45 272.16 134.65 269.185 136.4L274.36 141.875C274.91 140.9 275.335 139.725 275.61 138.325L276.635 138.65C276.31 140.25 275.81 141.6 275.135 142.675L277.735 145.425ZM266.36 131.975C266.36 133.075 266.785 133.875 268.46 135.65C271.21 134.05 272.085 133.125 272.085 131.75C272.085 130.325 271.11 129.375 269.335 129.375C267.46 129.375 266.36 130.425 266.36 131.975ZM268.685 145.075C270.76 145.075 272.485 144.325 273.71 142.8L268.185 136.975C265.085 138.8 264.16 139.975 264.16 141.65C264.16 143.7 266.01 145.075 268.685 145.075ZM295.388 132.85C299.063 132.85 301.838 135.55 301.838 139.475C301.838 143.375 299.063 146.1 295.388 146.1C293.038 146.1 291.063 144.925 290.038 142.925V146H288.838V127.45H290.088V135.925C291.138 133.975 293.088 132.85 295.388 132.85ZM295.313 144.975C298.313 144.975 300.588 142.75 300.588 139.475C300.588 136.2 298.313 133.975 295.313 133.975C292.313 133.975 290.063 136.2 290.063 139.475C290.063 142.75 292.313 144.975 295.313 144.975ZM310.934 132.85C314.159 132.85 315.959 134.5 315.959 137.725V146H314.759V143.675C313.934 145.175 312.334 146.1 310.059 146.1C307.134 146.1 305.359 144.6 305.359 142.375C305.359 140.4 306.609 138.725 310.234 138.725H314.709V137.675C314.709 135.25 313.384 133.95 310.834 133.95C309.034 133.95 307.409 134.625 306.334 135.6L305.709 134.7C307.009 133.55 308.909 132.85 310.934 132.85ZM310.234 145.075C312.434 145.075 313.959 144.025 314.709 142.15V139.7H310.259C307.559 139.7 306.609 140.825 306.609 142.325C306.609 144.025 307.934 145.075 310.234 145.075ZM323.184 135.8C323.984 133.9 325.709 132.85 328.159 132.85V134.075C328.059 134.075 327.959 134.05 327.859 134.05C324.959 134.05 323.234 135.975 323.234 139.2V146H321.984V132.95H323.184V135.8Z" fill="black"/>
<path d="M23.3294 77.6277C23.2181 79.1223 23.1347 80.572 23.079 81.9769C23.0512 83.3519 23.0373 84.413 23.0373 85.1603C23.0373 85.788 23.0512 86.3859 23.079 86.9538C23.1068 87.5217 23.1347 88 23.1625 88.3886H22.2026C21.8687 85.9076 21.3123 83.9647 20.5332 82.5598C19.7542 81.125 18.836 80.1236 17.7788 79.5557C16.7493 78.9579 15.6642 78.659 14.5235 78.659H13.981C13.2576 78.659 12.715 78.7337 12.3533 78.8832C11.9916 79.0027 11.7412 79.2568 11.6021 79.6454C11.4908 80.034 11.4352 80.6467 11.4352 81.4837V105.516C11.4352 106.323 11.4908 106.936 11.6021 107.355C11.7412 107.743 11.9916 108.012 12.3533 108.162C12.715 108.281 13.2576 108.341 13.981 108.341H15.3582C16.2763 108.341 17.2362 108.027 18.2378 107.399C19.2673 106.742 20.2133 105.636 21.0758 104.082C21.9383 102.527 22.5921 100.405 23.0373 97.7147H23.9972C23.9137 98.7908 23.872 100.166 23.872 101.84C23.872 102.587 23.8859 103.663 23.9137 105.068C23.9415 106.443 24.025 107.878 24.1641 109.372C22.7451 109.312 21.1453 109.283 19.3647 109.283C17.584 109.253 15.9981 109.238 14.607 109.238C13.8558 109.238 12.8959 109.238 11.7273 109.238C10.5866 109.238 9.33455 109.253 7.97123 109.283C6.63574 109.283 5.27242 109.298 3.88128 109.327C2.51796 109.327 1.2242 109.342 0 109.372V108.476C0.862507 108.416 1.50243 108.296 1.91977 108.117C2.33712 107.937 2.61534 107.579 2.75446 107.041C2.89357 106.503 2.96313 105.696 2.96313 104.62V82.3804C2.96313 81.2745 2.89357 80.4674 2.75446 79.9592C2.61534 79.4212 2.3232 79.0625 1.87804 78.8832C1.4607 78.6739 0.834684 78.5543 0 78.5245V77.6277C1.2242 77.6576 2.51796 77.6875 3.88128 77.7174C5.27242 77.7174 6.63574 77.7323 7.97123 77.7622C9.33455 77.7622 10.5866 77.7622 11.7273 77.7622C12.8959 77.7622 13.8558 77.7622 14.607 77.7622C15.8868 77.7622 17.3336 77.7622 18.9473 77.7622C20.5889 77.7323 22.0496 77.6875 23.3294 77.6277ZM17.278 92.962C17.278 92.962 17.278 93.1114 17.278 93.4103C17.278 93.7092 17.278 93.8587 17.278 93.8587H10.1831C10.1831 93.8587 10.1831 93.7092 10.1831 93.4103C10.1831 93.1114 10.1831 92.962 10.1831 92.962H17.278ZM18.4883 87.0435C18.377 88.7473 18.3213 90.0476 18.3213 90.9443C18.3491 91.841 18.363 92.663 18.363 93.4103C18.363 94.1576 18.377 94.9796 18.4048 95.8764C18.4326 96.7731 18.5022 98.0734 18.6135 99.7772H17.6536C17.4866 98.6712 17.1388 97.6698 16.6102 96.7731C16.1094 95.8764 15.4556 95.1739 14.6487 94.6658C13.8418 94.1277 12.9098 93.8587 11.8525 93.8587V92.962C12.6316 92.962 13.341 92.7826 13.981 92.4239C14.6209 92.0652 15.1773 91.587 15.6503 90.9891C16.1511 90.3913 16.5546 89.7486 16.8606 89.0611C17.1945 88.3736 17.4171 87.7011 17.5284 87.0435H18.4883Z" fill="black"/>
<path d="M48.8453 77.6277L58.945 105.606C59.3345 106.622 59.7519 107.355 60.197 107.803C60.6422 108.221 61.0456 108.446 61.4073 108.476V109.372C60.4057 109.312 59.2371 109.283 57.9016 109.283C56.5661 109.253 55.2028 109.238 53.8117 109.238C52.3927 109.238 51.0572 109.253 49.8052 109.283C48.5532 109.283 47.5516 109.312 46.8003 109.372V108.476C48.2193 108.416 49.1096 108.162 49.4713 107.713C49.8609 107.235 49.7774 106.234 49.2209 104.709L42.5435 84.8465L43.3781 83.2772L37.6188 99.3736C36.9232 101.317 36.492 102.886 36.3251 104.082C36.1859 105.247 36.2555 106.144 36.5337 106.772C36.812 107.399 37.2571 107.833 37.8692 108.072C38.4813 108.311 39.2047 108.446 40.0394 108.476V109.372C39.01 109.312 38.0779 109.283 37.2432 109.283C36.4363 109.253 35.546 109.238 34.5722 109.238C34.0436 109.238 33.4732 109.253 32.8611 109.283C32.2768 109.283 31.776 109.312 31.3587 109.372V108.476C31.9986 108.356 32.6246 107.923 33.2367 107.175C33.8767 106.398 34.5305 105.083 35.1982 103.23L44.4632 77.6277C45.131 77.6875 45.8544 77.7174 46.6334 77.7174C47.4403 77.7174 48.1776 77.6875 48.8453 77.6277ZM50.306 96.4592V97.356H37.8692L38.2866 96.4592H50.306Z" fill="black"/>
<path d="M92.2616 77.6277C92.1503 79.3913 92.0668 81.0951 92.0112 82.7391C91.9834 84.3832 91.9695 85.6386 91.9695 86.5054C91.9695 87.1332 91.9834 87.731 92.0112 88.2989C92.039 88.8668 92.0668 89.3451 92.0947 89.7337H91.1348C90.4948 86.9239 89.7158 84.712 88.7977 83.0978C87.9073 81.4837 86.9474 80.3478 85.918 79.6902C84.9164 79.0027 83.9148 78.659 82.9131 78.659H82.8714V104.306C82.8714 105.531 82.9827 106.443 83.2053 107.041C83.4557 107.639 83.9148 108.027 84.5825 108.207C85.2503 108.386 86.224 108.476 87.5039 108.476V109.372C86.5301 109.342 85.2085 109.312 83.5392 109.283C81.8976 109.253 80.1726 109.238 78.3641 109.238C76.6391 109.238 75.0115 109.253 73.4812 109.283C71.951 109.312 70.7128 109.342 69.7669 109.372V108.476C71.0467 108.476 72.0205 108.386 72.6883 108.207C73.356 108.027 73.8012 107.639 74.0238 107.041C74.2742 106.443 74.3994 105.531 74.3994 104.306V78.659H74.3576C73.356 78.659 72.3405 79.0027 71.311 79.6902C70.3094 80.3478 69.3634 81.4837 68.4731 83.0978C67.5828 84.6821 66.8037 86.894 66.136 89.7337H65.1761C65.2318 89.3451 65.2596 88.8668 65.2596 88.2989C65.2874 87.731 65.3013 87.1332 65.3013 86.5054C65.3013 85.6386 65.2735 84.3832 65.2178 82.7391C65.19 81.0951 65.1205 79.3913 65.0092 77.6277C66.3447 77.6576 67.8193 77.6875 69.433 77.7174C71.0467 77.7473 72.6604 77.7622 74.2742 77.7622C75.8879 77.7622 77.3486 77.7622 78.6562 77.7622C79.9639 77.7622 81.4246 77.7622 83.0383 77.7622C84.6521 77.7622 86.2658 77.7473 87.8795 77.7174C89.4932 77.6875 90.9539 77.6576 92.2616 77.6277Z" fill="black"/>
<path d="M154.88 77.6277V78.5245C154.24 78.8533 153.572 79.4959 152.876 80.4524C152.181 81.409 151.555 82.8587 150.998 84.8016L143.987 109.372C143.653 109.342 143.291 109.327 142.902 109.327C142.54 109.298 142.165 109.283 141.775 109.283C141.413 109.283 141.038 109.298 140.648 109.327C140.286 109.327 139.939 109.342 139.605 109.372L130.841 80.6318C130.618 79.8546 130.326 79.3166 129.964 79.0177C129.603 78.7188 129.185 78.5543 128.712 78.5245V77.6277C129.658 77.6576 130.771 77.6875 132.051 77.7174C133.331 77.7473 134.625 77.7622 135.932 77.7622C137.24 77.7622 138.464 77.7473 139.605 77.7174C140.773 77.6875 141.705 77.6576 142.401 77.6277V78.5245C141.538 78.5543 140.871 78.6739 140.398 78.8832C139.925 79.0625 139.647 79.4212 139.563 79.9592C139.507 80.4674 139.647 81.2446 139.98 82.2908L145.698 100.943L144.488 103.678L148.703 89.1957C149.482 86.5353 149.858 84.4429 149.83 82.9185C149.802 81.3641 149.468 80.2582 148.828 79.6005C148.188 78.913 147.312 78.5543 146.199 78.5245V77.6277C147.256 77.6576 148.188 77.6875 148.995 77.7174C149.83 77.7473 150.72 77.7622 151.666 77.7622C152.222 77.7622 152.793 77.7473 153.377 77.7174C153.961 77.6875 154.462 77.6576 154.88 77.6277ZM124.706 77.6277V78.5245C124.233 78.6141 123.913 78.8832 123.746 79.3315C123.607 79.75 123.565 80.2432 123.621 80.8111C123.704 81.3492 123.815 81.8424 123.954 82.2908L130.256 101.346L129.088 103.274L134.096 88.7024L134.68 90.0027L128.295 109.372C127.961 109.342 127.599 109.327 127.21 109.327C126.848 109.298 126.472 109.283 126.083 109.283C125.721 109.283 125.346 109.298 124.956 109.327C124.594 109.327 124.247 109.342 123.913 109.372L114.23 81.394C113.869 80.3478 113.465 79.6155 113.02 79.197C112.575 78.7785 112.158 78.5543 111.768 78.5245V77.6277C112.77 77.6576 113.938 77.6875 115.274 77.7174C116.637 77.7473 117.931 77.7622 119.155 77.7622C120.379 77.7622 121.464 77.7473 122.41 77.7174C123.356 77.6875 124.121 77.6576 124.706 77.6277Z" fill="black"/>
<path d="M185.294 77.6277C185.183 79.1223 185.099 80.572 185.044 81.9769C185.016 83.3519 185.002 84.413 185.002 85.1603C185.002 85.788 185.016 86.3859 185.044 86.9538C185.071 87.5217 185.099 88 185.127 88.3886H184.167C183.833 85.9076 183.277 83.9647 182.498 82.5598C181.719 81.125 180.801 80.1236 179.743 79.5557C178.714 78.9579 177.629 78.659 176.488 78.659H175.946C175.222 78.659 174.68 78.7337 174.318 78.8832C173.956 79.0027 173.706 79.2568 173.567 79.6454C173.455 80.034 173.4 80.6467 173.4 81.4837V105.516C173.4 106.323 173.455 106.936 173.567 107.355C173.706 107.743 173.956 108.012 174.318 108.162C174.68 108.281 175.222 108.341 175.946 108.341H177.323C178.241 108.341 179.201 108.027 180.202 107.399C181.232 106.742 182.178 105.636 183.04 104.082C183.903 102.527 184.557 100.405 185.002 97.7147H185.962C185.878 98.7908 185.837 100.166 185.837 101.84C185.837 102.587 185.85 103.663 185.878 105.068C185.906 106.443 185.99 107.878 186.129 109.372C184.71 109.312 183.11 109.283 181.329 109.283C179.549 109.253 177.963 109.238 176.572 109.238C175.82 109.238 174.86 109.238 173.692 109.238C172.551 109.238 171.299 109.253 169.936 109.283C168.6 109.283 167.237 109.298 165.846 109.327C164.483 109.327 163.189 109.342 161.965 109.372V108.476C162.827 108.416 163.467 108.296 163.884 108.117C164.302 107.937 164.58 107.579 164.719 107.041C164.858 106.503 164.928 105.696 164.928 104.62V82.3804C164.928 81.2745 164.858 80.4674 164.719 79.9592C164.58 79.4212 164.288 79.0625 163.843 78.8832C163.425 78.6739 162.799 78.5543 161.965 78.5245V77.6277C163.189 77.6576 164.483 77.6875 165.846 77.7174C167.237 77.7174 168.6 77.7323 169.936 77.7622C171.299 77.7622 172.551 77.7622 173.692 77.7622C174.86 77.7622 175.82 77.7622 176.572 77.7622C177.851 77.7622 179.298 77.7622 180.912 77.7622C182.553 77.7323 184.014 77.6875 185.294 77.6277ZM179.243 92.962C179.243 92.962 179.243 93.1114 179.243 93.4103C179.243 93.7092 179.243 93.8587 179.243 93.8587H172.148C172.148 93.8587 172.148 93.7092 172.148 93.4103C172.148 93.1114 172.148 92.962 172.148 92.962H179.243ZM180.453 87.0435C180.342 88.7473 180.286 90.0476 180.286 90.9443C180.314 91.841 180.328 92.663 180.328 93.4103C180.328 94.1576 180.342 94.9796 180.369 95.8764C180.397 96.7731 180.467 98.0734 180.578 99.7772H179.618C179.451 98.6712 179.103 97.6698 178.575 96.7731C178.074 95.8764 177.42 95.1739 176.613 94.6658C175.806 94.1277 174.874 93.8587 173.817 93.8587V92.962C174.596 92.962 175.306 92.7826 175.946 92.4239C176.585 92.0652 177.142 91.587 177.615 90.9891C178.116 90.3913 178.519 89.7486 178.825 89.0611C179.159 88.3736 179.382 87.7011 179.493 87.0435H180.453Z" fill="black"/>
<path d="M210.184 77.6277V78.5245C209.238 78.5543 208.515 78.6739 208.014 78.8832C207.541 79.0625 207.221 79.4212 207.054 79.9592C206.887 80.4674 206.803 81.2745 206.803 82.3804V105.516C206.803 106.323 206.859 106.936 206.97 107.355C207.082 107.743 207.29 108.012 207.596 108.162C207.902 108.281 208.348 108.341 208.932 108.341H210.309C211.032 108.341 211.812 108.042 212.646 107.444C213.481 106.846 214.288 106.024 215.067 104.978C215.874 103.932 216.569 102.751 217.153 101.436C217.738 100.091 218.155 98.7011 218.406 97.2663H219.365C219.282 98.3424 219.24 99.7174 219.24 101.391C219.24 102.168 219.254 103.304 219.282 104.799C219.31 106.264 219.393 107.788 219.532 109.372C218.113 109.312 216.514 109.283 214.733 109.283C212.952 109.253 211.366 109.238 209.975 109.238C209.224 109.238 208.264 109.238 207.096 109.238C205.955 109.238 204.703 109.253 203.339 109.283C202.004 109.283 200.641 109.298 199.25 109.327C197.886 109.327 196.592 109.342 195.368 109.372V108.476C196.231 108.416 196.871 108.296 197.288 108.117C197.705 107.937 197.984 107.579 198.123 107.041C198.262 106.503 198.331 105.696 198.331 104.62V82.3804C198.331 81.2745 198.262 80.4674 198.123 79.9592C197.984 79.4212 197.691 79.0625 197.246 78.8832C196.829 78.6739 196.203 78.5543 195.368 78.5245V77.6277C196.175 77.6576 197.232 77.6875 198.54 77.7174C199.876 77.7473 201.294 77.7622 202.797 77.7622C204.188 77.7622 205.551 77.7473 206.887 77.7174C208.222 77.6875 209.321 77.6576 210.184 77.6277Z" fill="black"/>
<path d="M242.569 77.6277V78.5245C241.623 78.5543 240.899 78.6739 240.398 78.8832C239.925 79.0625 239.605 79.4212 239.439 79.9592C239.272 80.4674 239.188 81.2745 239.188 82.3804V105.516C239.188 106.323 239.244 106.936 239.355 107.355C239.466 107.743 239.675 108.012 239.981 108.162C240.287 108.281 240.732 108.341 241.317 108.341H242.694C243.417 108.341 244.196 108.042 245.031 107.444C245.866 106.846 246.672 106.024 247.452 104.978C248.258 103.932 248.954 102.751 249.538 101.436C250.123 100.091 250.54 98.7011 250.79 97.2663H251.75C251.667 98.3424 251.625 99.7174 251.625 101.391C251.625 102.168 251.639 103.304 251.667 104.799C251.695 106.264 251.778 107.788 251.917 109.372C250.498 109.312 248.898 109.283 247.118 109.283C245.337 109.253 243.751 109.238 242.36 109.238C241.609 109.238 240.649 109.238 239.48 109.238C238.34 109.238 237.088 109.253 235.724 109.283C234.389 109.283 233.025 109.298 231.634 109.327C230.271 109.327 228.977 109.342 227.753 109.372V108.476C228.615 108.416 229.255 108.296 229.673 108.117C230.09 107.937 230.368 107.579 230.507 107.041C230.647 106.503 230.716 105.696 230.716 104.62V82.3804C230.716 81.2745 230.647 80.4674 230.507 79.9592C230.368 79.4212 230.076 79.0625 229.631 78.8832C229.214 78.6739 228.588 78.5543 227.753 78.5245V77.6277C228.56 77.6576 229.617 77.6875 230.925 77.7174C232.26 77.7473 233.679 77.7622 235.182 77.7622C236.573 77.7622 237.936 77.7473 239.272 77.7174C240.607 77.6875 241.706 77.6576 242.569 77.6277Z" fill="black"/>
<path d="M292.534 109.372V108.476C293.396 108.416 294.036 108.296 294.453 108.117C294.871 107.937 295.149 107.579 295.288 107.041C295.427 106.503 295.497 105.696 295.497 104.62V82.3804C295.497 81.2745 295.427 80.4674 295.288 79.9592C295.149 79.4212 294.857 79.0625 294.412 78.8832C293.994 78.6739 293.368 78.5543 292.534 78.5245V77.6277C293.396 77.6576 294.495 77.6875 295.831 77.7174C297.194 77.7473 298.557 77.7622 299.921 77.7622C301.34 77.7622 302.675 77.7473 303.927 77.7174C305.179 77.6875 306.181 77.6576 306.932 77.6277V78.5245C306.097 78.5543 305.457 78.6739 305.012 78.8832C304.595 79.0625 304.317 79.4212 304.177 79.9592C304.038 80.4674 303.969 81.2745 303.969 82.3804V104.62C303.969 105.696 304.038 106.503 304.177 107.041C304.344 107.579 304.637 107.937 305.054 108.117C305.471 108.296 306.097 108.416 306.932 108.476V109.372C306.181 109.312 305.179 109.283 303.927 109.283C302.675 109.253 301.34 109.238 299.921 109.238C298.557 109.238 297.194 109.253 295.831 109.283C294.495 109.283 293.396 109.312 292.534 109.372ZM274.671 109.372V108.476C275.534 108.416 276.174 108.296 276.591 108.117C277.008 107.937 277.287 107.579 277.426 107.041C277.565 106.503 277.634 105.696 277.634 104.62V82.3804C277.634 81.2745 277.565 80.4674 277.426 79.9592C277.287 79.4212 276.995 79.0625 276.549 78.8832C276.132 78.6739 275.506 78.5543 274.671 78.5245V77.6277C275.478 77.6576 276.535 77.6875 277.843 77.7174C279.179 77.7473 280.598 77.7622 282.1 77.7622C283.408 77.7622 284.688 77.7473 285.94 77.7174C287.219 77.6875 288.263 77.6576 289.07 77.6277V78.5245C288.235 78.5543 287.595 78.6739 287.15 78.8832C286.733 79.0625 286.454 79.4212 286.315 79.9592C286.176 80.4674 286.107 81.2745 286.107 82.3804V104.62C286.107 105.696 286.176 106.503 286.315 107.041C286.482 107.579 286.774 107.937 287.192 108.117C287.609 108.296 288.235 108.416 289.07 108.476V109.372C288.263 109.312 287.219 109.283 285.94 109.283C284.688 109.253 283.408 109.238 282.1 109.238C280.598 109.238 279.179 109.253 277.843 109.283C276.535 109.283 275.478 109.312 274.671 109.372ZM282.559 93.8587V92.962H299.044V93.8587H282.559Z" fill="black"/>
<path d="M331.317 77C334.461 77 337.215 77.6427 339.58 78.928C341.945 80.2133 343.781 82.0666 345.089 84.4878C346.397 86.8791 347.051 89.7935 347.051 93.231C347.051 96.5788 346.383 99.5082 345.047 102.019C343.712 104.53 341.848 106.488 339.455 107.893C337.09 109.298 334.363 110 331.275 110C328.131 110 325.377 109.357 323.012 108.072C320.647 106.787 318.81 104.933 317.503 102.512C316.195 100.091 315.541 97.1766 315.541 93.769C315.541 90.4212 316.209 87.4918 317.544 84.981C318.908 82.4701 320.772 80.5122 323.137 79.1073C325.502 77.7024 328.228 77 331.317 77ZM331.15 77.8071C329.759 77.8071 328.548 78.4796 327.519 79.8247C326.489 81.1698 325.697 83.0231 325.14 85.3845C324.584 87.7459 324.305 90.481 324.305 93.5897C324.305 96.7582 324.625 99.5231 325.265 101.885C325.905 104.216 326.768 106.024 327.853 107.31C328.938 108.565 330.134 109.193 331.442 109.193C332.833 109.193 334.043 108.52 335.073 107.175C336.102 105.83 336.895 103.977 337.452 101.615C338.008 99.2242 338.286 96.4891 338.286 93.4103C338.286 90.212 337.966 87.447 337.326 85.1155C336.687 82.784 335.824 80.9905 334.739 79.7351C333.654 78.4497 332.457 77.8071 331.15 77.8071Z" fill="black"/>
<path d="M383.036 77.6277V78.5245C382.202 78.7038 381.562 79.0177 381.117 79.466C380.699 79.9144 380.421 80.6169 380.282 81.5734C380.143 82.5 380.073 83.8152 380.073 85.519V96.3247C380.073 98.178 379.948 99.9266 379.698 101.571C379.475 103.215 379.03 104.635 378.362 105.83C377.639 107.115 376.554 108.132 375.107 108.879C373.688 109.626 371.782 110 369.389 110C368.11 110 366.76 109.851 365.341 109.552C363.922 109.253 362.656 108.685 361.543 107.848C360.597 107.101 359.874 106.189 359.373 105.113C358.872 104.037 358.539 102.781 358.372 101.346C358.205 99.9117 358.121 98.2826 358.121 96.4592V82.3804C358.121 81.2745 358.052 80.4674 357.913 79.9592C357.773 79.4212 357.495 79.0625 357.078 78.8832C356.661 78.6739 356.021 78.5543 355.158 78.5245V77.6277C355.965 77.6576 357.022 77.6875 358.33 77.7174C359.665 77.7473 361.056 77.7622 362.503 77.7622C363.95 77.7622 365.341 77.7473 366.677 77.7174C368.012 77.6875 369.111 77.6576 369.974 77.6277V78.5245C369.028 78.5543 368.304 78.6739 367.804 78.8832C367.331 79.0625 367.011 79.4212 366.844 79.9592C366.677 80.4674 366.593 81.2745 366.593 82.3804V100.674C366.593 102.139 366.705 103.379 366.927 104.395C367.15 105.382 367.47 106.174 367.887 106.772C368.332 107.37 368.875 107.803 369.515 108.072C370.182 108.311 370.947 108.431 371.81 108.431C373.674 108.431 375.135 107.952 376.192 106.996C377.249 106.01 378.001 104.649 378.446 102.916C378.891 101.152 379.113 99.1196 379.113 96.8179V86.4158C379.113 84.413 379.03 82.8886 378.863 81.8424C378.724 80.7663 378.362 79.9891 377.778 79.5109C377.194 79.0326 376.234 78.7038 374.898 78.5245V77.6277C375.455 77.6576 376.178 77.6875 377.069 77.7174C377.959 77.7473 378.794 77.7622 379.573 77.7622C380.212 77.7622 380.839 77.7473 381.451 77.7174C382.091 77.6875 382.619 77.6576 383.036 77.6277Z" fill="black"/>
<path d="M402.416 77C404.225 77 405.63 77.1943 406.631 77.5829C407.633 77.9715 408.482 78.375 409.177 78.7935C409.511 79.0027 409.775 79.1671 409.97 79.2867C410.193 79.3764 410.401 79.4212 410.596 79.4212C410.874 79.4212 411.069 79.2568 411.18 78.928C411.319 78.5992 411.431 78.106 411.514 77.4484H412.474C412.446 78.0761 412.405 78.8084 412.349 79.6454C412.321 80.4823 412.293 81.5883 412.265 82.9633C412.265 84.3383 412.265 86.1467 412.265 88.3886H411.306C411.194 86.7446 410.833 85.1454 410.22 83.591C409.636 82.0367 408.815 80.7514 407.758 79.7351C406.729 78.7188 405.491 78.2106 404.044 78.2106C402.82 78.2106 401.804 78.5693 400.997 79.2867C400.19 80.0041 399.787 81.0353 399.787 82.3804C399.787 83.4864 400.037 84.4429 400.538 85.25C401.039 86.0272 401.818 86.8492 402.875 87.716C403.96 88.5829 405.379 89.6739 407.132 90.9891C408.384 91.9158 409.511 92.8424 410.513 93.769C411.542 94.6957 412.363 95.7418 412.975 96.9076C413.587 98.0734 413.893 99.4783 413.893 101.122C413.893 103.125 413.364 104.784 412.307 106.099C411.278 107.414 409.9 108.401 408.175 109.058C406.45 109.686 404.572 110 402.541 110C400.649 110 399.133 109.821 397.992 109.462C396.879 109.103 395.933 108.73 395.154 108.341C394.542 107.923 394.069 107.713 393.735 107.713C393.457 107.713 393.249 107.878 393.109 108.207C392.998 108.535 392.901 109.029 392.817 109.686H391.857C391.913 108.909 391.941 108.012 391.941 106.996C391.969 105.95 391.983 104.605 391.983 102.961C392.01 101.317 392.024 99.2242 392.024 96.6834H392.984C393.096 98.7758 393.402 100.734 393.902 102.557C394.431 104.38 395.224 105.86 396.281 106.996C397.366 108.102 398.799 108.655 400.58 108.655C401.609 108.655 402.486 108.49 403.209 108.162C403.96 107.803 404.545 107.295 404.962 106.637C405.379 105.98 405.588 105.187 405.588 104.261C405.588 103.005 405.324 101.914 404.795 100.988C404.266 100.031 403.543 99.1495 402.625 98.3424C401.735 97.5054 400.691 96.6685 399.495 95.8315C398.187 94.875 396.963 93.9185 395.822 92.962C394.681 92.0054 393.763 90.9293 393.068 89.7337C392.4 88.538 392.066 87.1182 392.066 85.4742C392.066 83.5014 392.553 81.9022 393.527 80.6766C394.501 79.4212 395.78 78.4946 397.366 77.8967C398.952 77.2989 400.636 77 402.416 77Z" fill="black"/>
<path d="M446.165 77.6277C446.054 79.1223 445.971 80.572 445.915 81.9769C445.887 83.3519 445.873 84.413 445.873 85.1603C445.873 85.788 445.887 86.3859 445.915 86.9538C445.943 87.5217 445.971 88 445.998 88.3886H445.039C444.705 85.9076 444.148 83.9647 443.369 82.5598C442.59 81.125 441.672 80.1236 440.615 79.5557C439.585 78.9579 438.5 78.659 437.359 78.659H436.817C436.093 78.659 435.551 78.7337 435.189 78.8832C434.828 79.0027 434.577 79.2568 434.438 79.6454C434.327 80.034 434.271 80.6467 434.271 81.4837V105.516C434.271 106.323 434.327 106.936 434.438 107.355C434.577 107.743 434.828 108.012 435.189 108.162C435.551 108.281 436.093 108.341 436.817 108.341H438.194C439.112 108.341 440.072 108.027 441.074 107.399C442.103 106.742 443.049 105.636 443.912 104.082C444.774 102.527 445.428 100.405 445.873 97.7147H446.833C446.75 98.7908 446.708 100.166 446.708 101.84C446.708 102.587 446.722 103.663 446.75 105.068C446.777 106.443 446.861 107.878 447 109.372C445.581 109.312 443.981 109.283 442.201 109.283C440.42 109.253 438.834 109.238 437.443 109.238C436.692 109.238 435.732 109.238 434.563 109.238C433.422 109.238 432.17 109.253 430.807 109.283C429.472 109.283 428.108 109.298 426.717 109.327C425.354 109.327 424.06 109.342 422.836 109.372V108.476C423.698 108.416 424.338 108.296 424.756 108.117C425.173 107.937 425.451 107.579 425.59 107.041C425.729 106.503 425.799 105.696 425.799 104.62V82.3804C425.799 81.2745 425.729 80.4674 425.59 79.9592C425.451 79.4212 425.159 79.0625 424.714 78.8832C424.297 78.6739 423.671 78.5543 422.836 78.5245V77.6277C424.06 77.6576 425.354 77.6875 426.717 77.7174C428.108 77.7174 429.472 77.7323 430.807 77.7622C432.17 77.7622 433.422 77.7622 434.563 77.7622C435.732 77.7622 436.692 77.7622 437.443 77.7622C438.723 77.7622 440.17 77.7622 441.783 77.7622C443.425 77.7323 444.885 77.6875 446.165 77.6277ZM440.114 92.962C440.114 92.962 440.114 93.1114 440.114 93.4103C440.114 93.7092 440.114 93.8587 440.114 93.8587H433.019C433.019 93.8587 433.019 93.7092 433.019 93.4103C433.019 93.1114 433.019 92.962 433.019 92.962H440.114ZM441.324 87.0435C441.213 88.7473 441.157 90.0476 441.157 90.9443C441.185 91.841 441.199 92.663 441.199 93.4103C441.199 94.1576 441.213 94.9796 441.241 95.8764C441.269 96.7731 441.338 98.0734 441.449 99.7772H440.489C440.323 98.6712 439.975 97.6698 439.446 96.7731C438.945 95.8764 438.291 95.1739 437.485 94.6658C436.678 94.1277 435.746 93.8587 434.688 93.8587V92.962C435.467 92.962 436.177 92.7826 436.817 92.4239C437.457 92.0652 438.013 91.587 438.486 90.9891C438.987 90.3913 439.39 89.7486 439.697 89.0611C440.03 88.3736 440.253 87.7011 440.364 87.0435H441.324Z" fill="black"/>
</svg>
