<svg width="35" height="35" viewBox="0 0 35 35" fill="none" xmlns="http://www.w3.org/2000/svg">
<g clip-path="url(#clip0_739_3937)">
<path fill-rule="evenodd" clip-rule="evenodd" d="M2.4603 2.4603C0 4.92061 0 8.88038 0 16.8V18.2C0 26.1196 0 30.0794 2.4603 32.5397C4.92061 35 8.88038 35 16.8 35H18.2C26.1196 35 30.0794 35 32.5397 32.5397C35 30.0794 35 26.1196 35 18.2V16.8C35 8.88038 35 4.92061 32.5397 2.4603C30.0794 0 26.1196 0 18.2 0H16.8C8.88038 0 4.92061 0 2.4603 2.4603ZM5.90634 10.6459C6.09592 19.7459 10.6459 25.2147 18.623 25.2147H19.0751V20.0084C22.0064 20.3001 24.2229 22.4438 25.1125 25.2147H29.2542C28.1167 21.073 25.127 18.7834 23.2603 17.9084C25.127 16.8292 27.752 14.2042 28.3791 10.6459H24.6165C23.7999 13.5334 21.3793 16.1584 19.0751 16.4063V10.6459H15.3125V20.7376C12.9792 20.1542 10.0334 17.3251 9.90216 10.6459H5.90634Z" fill="white"/>
</g>
<defs>
<clipPath id="clip0_739_3937">
<rect width="35" height="35" fill="white"/>
</clipPath>
</defs>
</svg>
